<svg xmlns="http://www.w3.org/2000/svg" viewBox="0 0 56.39 89.55"><title>money flower</title><g id="Layer_2" data-name="Layer 2"><g id="Our_Value" data-name="Our Value"><path d="M10.77,71.52v3.27s0,4.11,2.66,6.66a11.21,11.21,0,0,0,6.66,2.66h3.27V80.84s0-4.11-2.66-6.66A11.21,11.21,0,0,0,14,71.52Zm13.79,15H20.09a12.43,12.43,0,0,1-8.35-3.39,13.38,13.38,0,0,1-3.39-8.35V70.31A1.14,1.14,0,0,1,9.56,69.1H14a12.43,12.43,0,0,1,8.35,3.39,13.38,13.38,0,0,1,3.39,8.35v4.48A1.14,1.14,0,0,1,24.57,86.52Z" style="fill:#eb1c24"/><path d="M33,75.15H36.3s4.11,0,6.66-2.66a11.21,11.21,0,0,0,2.66-6.66V62.57H42.35s-4.11,0-6.66,2.66A11,11,0,0,0,33,71.76Zm3.27,2.42H31.83a1.14,1.14,0,0,1-1.21-1.21V71.88A12.43,12.43,0,0,1,34,63.54a13.38,13.38,0,0,1,8.35-3.39h4.48A1.14,1.14,0,0,1,48,61.36v4.48a12.43,12.43,0,0,1-3.39,8.35A13.37,13.37,0,0,1,36.3,77.57Z" style="fill:#eb1c24"/><path d="M28.2,8.47A19.84,19.84,0,1,0,48,28.31,19.86,19.86,0,0,0,28.2,8.47Zm0,42A22.2,22.2,0,1,1,50.46,28.31,22.28,22.28,0,0,1,28.2,50.46Z" style="fill:#eb1c24"/><path d="M28.2,38.48a5.68,5.68,0,0,1-5.69-5.69,1.21,1.21,0,1,1,2.42,0,3.27,3.27,0,1,0,3.27-3.27,5.69,5.69,0,1,1,5.69-5.69,1.21,1.21,0,1,1-2.42,0A3.27,3.27,0,1,0,28.2,27.1a5.69,5.69,0,0,1,0,11.38Z" style="fill:#fff"/><path d="M28.2,39.93A1.14,1.14,0,0,1,27,38.72V37.27a1.21,1.21,0,1,1,2.42,0v1.45A1.14,1.14,0,0,1,28.2,39.93Z" style="fill:#fff"/><path d="M28.2,20.45A1.14,1.14,0,0,1,27,19.24V17.79a1.21,1.21,0,0,1,2.42,0v1.45A1.21,1.21,0,0,1,28.2,20.45Z" style="fill:#fff"/><path d="M28.2,89.55A1.14,1.14,0,0,1,27,88.34V56.51a28.46,28.46,0,1,1,7.38-.72,1.23,1.23,0,0,1-.48-2.42A25.9,25.9,0,1,0,28.2,54a1.14,1.14,0,0,1,1.21,1.21V88.34a1.14,1.14,0,0,1-1.21,1.21Z" style="fill:#eb1c24"/></g></g></svg>