<svg xmlns="http://www.w3.org/2000/svg" viewBox="0 0 48.55 37.29"><title>icon__twitter</title><g id="Layer_2" data-name="Layer 2"><g id="Contact_Us" data-name="Contact Us"><path d="M16.52,37.29A26.36,26.36,0,0,1,2.28,33.12L0,31.66l2.69.3a18.72,18.72,0,0,0,2.09.12,17.46,17.46,0,0,0,9.55-2.8A9.7,9.7,0,0,1,7,22.72l-.33-1,1,.2a8.55,8.55,0,0,0,1.23.14,9.74,9.74,0,0,1-5.16-8.58V12.3l.94.52a8.42,8.42,0,0,0,1.7.71A9.71,9.71,0,0,1,5.15,2.07l.46-.79L6.18,2a25.2,25.2,0,0,0,17.44,9.19,10,10,0,0,1-.09-1.38A9.71,9.71,0,0,1,40.05,2.9,17.41,17.41,0,0,0,45.28.85L46.71,0,46.2,1.59A9.69,9.69,0,0,1,44,5.32a17.37,17.37,0,0,0,2.58-.91l2-.88-1.2,1.81A18.75,18.75,0,0,1,42.95,10c0,.29,0,.58,0,.86a27.33,27.33,0,0,1-6.81,17.82A25.34,25.34,0,0,1,16.52,37.29Zm-11.31-4A25.09,25.09,0,0,0,16.52,36C28.9,36,41.7,26.61,41.7,10.85c0-.38,0-.76,0-1.14l0-.35.3-.21A17.35,17.35,0,0,0,45,6.33a18.54,18.54,0,0,1-3.33.7l-2.92.34,2.52-1.51a8.48,8.48,0,0,0,3-3.07A18.71,18.71,0,0,1,40,4.21l-.34.07L39.38,4A8.44,8.44,0,0,0,24.79,9.8,8.31,8.31,0,0,0,25,11.72l.2.82-.84,0a26.46,26.46,0,0,1-18.53-9A8.45,8.45,0,0,0,8.85,14l1.83,1.23-2.2-.07a9.78,9.78,0,0,1-3.41-.74,8.47,8.47,0,0,0,6.72,7.36l2.61.53-2.57.7a9.52,9.52,0,0,1-3.28.31,8.44,8.44,0,0,0,7.51,4.9l1.78,0-1.4,1.1A18.72,18.72,0,0,1,5.21,33.34Z" style="fill:#163b4d"/></g></g></svg>