<svg xmlns="http://www.w3.org/2000/svg" viewBox="0 0 362.64 432.95"><title>icon__invest</title><g id="Layer_2" data-name="Layer 2"><g id="Where_We_Invest" data-name="Where We Invest"><text transform="translate(132.69 12)" style="font-size:14px;fill:#163b4d;font-family:OpenSans-Semibold, Open Sans;font-weight:700">DIGITAL HEALTH</text><text transform="translate(132.92 412)" style="font-size:14px;fill:#163b4d;font-family:OpenSans-Semibold, Open Sans;font-weight:700">OPPORTUNISTIC<tspan x="11.76" y="17">INVESTMENT</tspan></text><text transform="translate(20.69 269)" style="font-size:14px;fill:#163b4d;font-family:OpenSans-Semibold, Open Sans;font-weight:700">ED-TECH</text><text transform="translate(301.19 269)" style="font-size:14px;fill:#163b4d;font-family:OpenSans-Semibold, Open Sans;font-weight:700">FIN TECH</text><path d="M315,281a149.89,149.89,0,0,1-71.9,60.46v3.23A152.9,152.9,0,0,0,318.49,281Z" style="fill:#ccc"/><path d="M129.08,343.07V339.8A150,150,0,0,1,61.18,281H57.69A152.94,152.94,0,0,0,129.08,343.07Z" style="fill:#ccc"/><path d="M47.19,146h3.25a149.87,149.87,0,0,1,78.64-79.81V62.91A152.87,152.87,0,0,0,47.19,146Z" style="fill:#ccc"/><path d="M325.74,146H329a152.85,152.85,0,0,0-85.91-84.7v3.22A149.85,149.85,0,0,1,325.74,146Z" style="fill:#ccc"/><path d="M176,45.38a7.12,7.12,0,0,0,0,10l12,12.23,12-12.22a7.11,7.11,0,0,0,0-10,6.81,6.81,0,0,0-9.78,0L188,47.64l-2.22-2.26A6.81,6.81,0,0,0,176,45.38Z" style="fill:none;stroke:#eb1c24;stroke-miterlimit:10;stroke-width:2px"/><path d="M223,77.23H152.81v-44H223Zm1.19.6V32.59a.56.56,0,0,0-.6-.6H152.21a.56.56,0,0,0-.6.6V77.83a.56.56,0,0,0,.6.6h71.43A.56.56,0,0,0,224.24,77.83Z" style="fill:#163b4d;stroke:#163b4d;stroke-miterlimit:10"/><path d="M239.71,84.73a43.83,43.83,0,0,1-7.74,2h-88.1a43.83,43.83,0,0,1-7.74-2V83.66a.56.56,0,0,1,.6-.6h10.48c.12,0,.12.12.24.12s.24,0,.24-.12h28.93a1.91,1.91,0,0,0,1.66,1.31h19A1.65,1.65,0,0,0,199,83.07h29c.12,0,.12.12.24.12s.24,0,.24-.12h10.6a.56.56,0,0,1,.6.6ZM148,29a1.83,1.83,0,0,1,1.79-1.79H226A1.83,1.83,0,0,1,227.81,29V81.87H198.64a.9.9,0,0,0-.47.24c-.12.12-.12.24-.12.47v.12a.56.56,0,0,1-.6.6h-19a.56.56,0,0,1-.6-.6v-.12a.7.7,0,0,0-.12-.47.61.61,0,0,0-.47-.24H148Zm91.07,52.86H229V29a3,3,0,0,0-3-3H149.83a3,3,0,0,0-3,3V81.87H136.74A1.83,1.83,0,0,0,135,83.66V85c0,1.43,8.81,3,8.93,3H232c.12,0,8.93-1.55,8.93-3V83.66A1.83,1.83,0,0,0,239.12,81.87Z" style="fill:#163b4d;stroke:#163b4d;stroke-miterlimit:10"/><path d="M353.13,241.47H312.92a2.26,2.26,0,0,1-2.26-2.26v-7.33h44.73v7.33a2.26,2.26,0,0,1-2.26,2.26Zm2.26-68.16v56.44H310.66V173.31ZM312.91,161.6h40.21a2.26,2.26,0,0,1,2.26,2.26v7.33H310.66v-7.33a2.26,2.26,0,0,1,2.26-2.26Zm40.21-2.13H312.92a4.4,4.4,0,0,0-4.39,4.39v75.35a4.4,4.4,0,0,0,4.39,4.39h40.21a4.4,4.4,0,0,0,4.39-4.39V163.85A4.4,4.4,0,0,0,353.13,159.47Z" style="fill:#163b4d"/><path d="M326.1,168h9.58a1.06,1.06,0,1,0,0-2.13H326.1a1.06,1.06,0,0,0,0,2.13Z" style="fill:#163b4d"/><path d="M339.35,167.8a.76.76,0,0,0,.19.1l.19.06h.21a1,1,0,0,0,.4-.09,1.3,1.3,0,0,0,.35-.22,1.11,1.11,0,0,0,.31-.76,1,1,0,0,0-.08-.4,1.11,1.11,0,0,0-.22-.35,1.31,1.31,0,0,0-.35-.22,1.08,1.08,0,0,0-.62-.06.74.74,0,0,0-.19.06.91.91,0,0,0-.19.1l-.16.13h0a1.11,1.11,0,0,0-.22.35.89.89,0,0,0-.08.4,1.08,1.08,0,0,0,.31.76Z" style="fill:#163b4d"/><path d="M333,238.8a2.13,2.13,0,1,1,1.51-.62,2.13,2.13,0,0,1-1.51.62Zm0-5.32a3.2,3.2,0,1,0,3.19,3.19,3.2,3.2,0,0,0-3.19-3.19Z" style="fill:#163b4d"/><path d="M333,214.15a6.38,6.38,0,0,1-6.39-6.39,1.36,1.36,0,1,1,2.72,0,3.67,3.67,0,1,0,3.67-3.67,6.39,6.39,0,1,1,6.39-6.39,1.36,1.36,0,1,1-2.72,0,3.67,3.67,0,1,0-3.67,3.67,6.39,6.39,0,0,1,0,12.78Z" style="fill:#eb1c24"/><path d="M333,215.78a1.28,1.28,0,0,1-1.36-1.36v-1.63a1.36,1.36,0,1,1,2.72,0v1.63A1.28,1.28,0,0,1,333,215.78Z" style="fill:#eb1c24"/><path d="M333,193.88a1.28,1.28,0,0,1-1.36-1.36v-1.63a1.36,1.36,0,1,1,2.72,0v1.63A1.36,1.36,0,0,1,333,193.88Z" style="fill:#eb1c24"/><path d="M47.75,232.68a1.69,1.69,0,1,1-3.37,0,1.69,1.69,0,1,1,3.37,0" style="fill:#163b4d"/><path d="M48.31,165H43.81a.28.28,0,0,0,0,.56h4.49a.28.28,0,0,0,0-.56Z" style="fill:#163b4d"/><path d="M30,229.13H62.14c-.16-.63-.34-1.62-.44-2.25H30.39C30.29,227.51,30.12,228.5,30,229.13Z" style="fill:#163b4d"/><path d="M11.28,208.35c-.34,1.21-1.22,5.4-2.14,9.83S7.08,228,6.84,228.66a39.44,39.44,0,0,1-6.53,9.8A1.12,1.12,0,0,0,1.94,240l.12-.13a41.1,41.1,0,0,0,6.84-10.3c.27-.61,1-3.8,2.45-10.95.88-4.2,1.78-8.54,2.11-9.68s3.45-3.61,6.72-5.81v-2.7C17.67,202,12,205.91,11.28,208.35Z" style="fill:#eb1c24"/><path d="M65.16,235.87H26.93c-.39.41-1.73,1.79-2.3,2.24H67.46C66.89,237.66,65.55,236.28,65.16,235.87Z" style="fill:#163b4d"/><path d="M71.9,200.41V164a4.5,4.5,0,0,0-4.49-4.49H24.71A4.5,4.5,0,0,0,20.22,164v36.46l-.05,0v2.7l.07,0v17a1.12,1.12,0,0,0,.29.75,7.64,7.64,0,0,1,2-2.89V170.7H69.66V218a7.53,7.53,0,0,1,1.93,2.86,1.11,1.11,0,0,0,.32-.67.65.65,0,0,0,0-.09v-17h0v-2.69Zm-2.24-32H22.47V164a2.25,2.25,0,0,1,2.25-2.25H67.41A2.25,2.25,0,0,1,69.66,164Z" style="fill:#163b4d"/><path d="M93.89,238.31h0c-.06,0-6.14-4.19-8.58-9.62-.25-.65-1.39-6.11-2.3-10.5s-1.8-8.62-2.14-9.83c-.7-2.46-6.45-6.35-8.93-7.93v2.69c3.29,2.21,6.47,4.78,6.77,5.85s1.23,5.48,2.1,9.68c1.49,7.15,2.18,10.34,2.45,10.95,2.35,5.21,7.43,9.17,8.95,10.27l.44.31a1.12,1.12,0,1,0,1.25-1.86Z" style="fill:#eb1c24"/><path d="M69.66,218.17a11.67,11.67,0,0,1-2.38-3.77,16.92,16.92,0,0,0-2.38-4c-2.33-2.67-5.9-3.14-7.76-1.9a2.35,2.35,0,0,0-.84,3.13c.22.45.49,1,.79,1.57,1.66,3.26,4.44,8.72,4.72,12.62,0,.36.06.7.11,1H61.7c.1.63.28,1.62.44,2.25h.16a16.93,16.93,0,0,0,3.11,6.74h-.25c.39.41,1.73,1.79,2.3,2.24l.15,0a13.31,13.31,0,0,0,3.93,2.2,11.05,11.05,0,0,1,7,6.8l.21.47a1.13,1.13,0,0,0,2-.94l0-.1-.15-.35a13.37,13.37,0,0,0-8.31-8,11.09,11.09,0,0,1-2.13-1,11.33,11.33,0,0,1-1.88-1.46,13.87,13.87,0,0,1-3.68-6.57,18.85,18.85,0,0,1-.44-2.25c-.05-.39-.09-.79-.12-1.2-.31-4.36-3.22-10.07-5-13.49-.3-.58-.56-1.1-.77-1.54a.37.37,0,0,1-.05-.17,1.19,1.19,0,0,1,.79-.33,4.84,4.84,0,0,1,4.15,1.74,15,15,0,0,1,2,3.48c1,2,2.07,4.31,4.41,5.49a6.25,6.25,0,0,0,.75.34,1.13,1.13,0,0,0,1-.14,1.07,1.07,0,0,0,.14-.16A7.53,7.53,0,0,0,69.66,218Z" style="fill:#eb1c24"/><path d="M26.93,235.87h-.21a16.92,16.92,0,0,0,3.11-6.74H30c.16-.63.34-1.61.44-2.25h-.17c0-.35.08-.69.11-1,.27-3.9,3.05-9.36,4.72-12.62.3-.6.57-1.12.79-1.57a2.35,2.35,0,0,0-.84-3.13c-1.86-1.24-5.42-.77-7.76,1.9a16.84,16.84,0,0,0-2.38,4,11.59,11.59,0,0,1-2.4,3.78V218a7.64,7.64,0,0,0-2,2.89,1.12,1.12,0,0,0,1.22.31,6,6,0,0,0,.74-.34c2.35-1.18,3.45-3.45,4.42-5.49a14.9,14.9,0,0,1,2-3.48,4.85,4.85,0,0,1,4.15-1.74,1.21,1.21,0,0,1,.79.33.41.41,0,0,1-.05.18c-.21.43-.47,1-.77,1.54-1.74,3.41-4.65,9.13-5,13.49,0,.4-.08.8-.13,1.19a18,18,0,0,1-.44,2.25,13.87,13.87,0,0,1-3.68,6.57,11.44,11.44,0,0,1-4,2.48,13.39,13.39,0,0,0-8.31,8l-.11.26-.08.18a1.13,1.13,0,0,0,.55,1.49,1.07,1.07,0,0,0,.46.11,1.12,1.12,0,0,0,1-.65l.21-.47a11.07,11.07,0,0,1,7-6.8,13.31,13.31,0,0,0,3.93-2.2h.11C25.2,237.65,26.54,236.27,26.93,235.87Z" style="fill:#eb1c24"/><path d="M200,335l-7.75,7.75,0,.08,7.74-7.78Z" style="fill:none"/><path d="M210,325l0,0,3-3Z" style="fill:none"/><path d="M184.43,345.8a3.26,3.26,0,1,0,6.53,0,3.34,3.34,0,0,0-.28-1.35l-.13.13.13-.13,0-.07-2.18,2.18a1.09,1.09,0,1,1-1.56-1.53l2.18-2.18h0l-.14.14.14-.14a3.31,3.31,0,0,0-1.38-.3A3.25,3.25,0,0,0,184.43,345.8Z" style="fill:none"/><path d="M200,332l6.93-6.93-.06-.05-6.92,7Z" style="fill:none"/><path d="M208.42,323.51l6.15-6.15-.08-.07-6.13,6.17Z" style="fill:none"/><path d="M190.68,341.25l7.75-7.75,0,0-7.73,7.77Z" style="fill:none"/><path d="M171.38,345.8A16.31,16.31,0,1,0,200,335.08l-7.74,7.78a5.36,5.36,0,0,1,.87,2.95,5.44,5.44,0,1,1-5.44-5.44,5.35,5.35,0,0,1,3,.87l7.73-7.77a16.33,16.33,0,0,0-27,12.33Z" style="fill:none"/><path d="M208.42,326.57l-6.93,6.93,0,0,6.92-7Z" style="fill:none"/><path d="M230.1,302.3v-7.37l-7.61,6.76V311h9.28l6.76-7.61h-7.34A1.13,1.13,0,0,1,230.1,302.3Z" style="fill:none"/><path d="M187.69,317.53a28.27,28.27,0,1,0,20.75,9.06l-6.92,7a18.43,18.43,0,1,1-1.6-1.61l6.92-7a28.19,28.19,0,0,0-19.14-7.46Z" style="fill:none"/><path d="M187.69,306.65a39.13,39.13,0,1,0,28.45,12.23L213,322l-3,3a30.48,30.48,0,1,1-1.61-1.6l6.13-6.17a39,39,0,0,0-26.8-10.63Z" style="fill:none"/><path d="M157.24,345.8A30.45,30.45,0,1,0,210,325.05l-1.53,1.53a28.28,28.28,0,1,1-20.75-9.06h0A28.19,28.19,0,0,1,206.83,325l1.53-1.53a30.44,30.44,0,0,0-51.12,22.35Z" style="fill:#163b4d"/><path d="M182.25,345.8a5.44,5.44,0,1,0,10.88,0,5.36,5.36,0,0,0-.87-2.95l-1.58,1.59a3.34,3.34,0,0,1,.28,1.35,3.26,3.26,0,1,1-3.26-3.26,3.31,3.31,0,0,1,1.38.3l1.59-1.6a5.35,5.35,0,0,0-3-.87A5.45,5.45,0,0,0,182.25,345.8Z" style="fill:#163b4d"/><path d="M230.1,302.3v-7.37l-7.61,6.76V311h9.28l6.76-7.61h-7.34A1.13,1.13,0,0,1,230.1,302.3Z" style="fill:none"/><path d="M187.69,306.65a39.13,39.13,0,1,0,28.45,12.24L213,322l-3,3,0,0-1.53,1.53,0,0-6.93,6.93,0,0L200,335.08l0,0-7.75,7.75,0,.08-1.58,1.59,0-.07-2.18,2.18a1.09,1.09,0,1,1-1.56-1.53l2.18-2.18h0l1.59-1.6h0l7.75-7.75,0,0,1.53-1.53,0,0,6.93-6.93-.06-.05,1.53-1.53.06.06,6.15-6.15-.08-.07a39,39,0,0,0-26.8-10.63Z" style="fill:none"/><polygon points="216.14 318.89 212.98 322.03 216.15 318.89 216.14 318.89" style="fill:none"/><path d="M226.84,345.8a39.15,39.15,0,1,1-39.15-39.15h0a39,39,0,0,1,26.8,10.63l1.53-1.53a40.31,40.31,0,1,0,1.66,1.62l-1.54,1.52A39,39,0,0,1,226.84,345.8Z" style="fill:#163b4d"/><path d="M241,301.21h-8.7v-8.7a1.14,1.14,0,0,0-1.19-1.12h0a1.07,1.07,0,0,0-.61.31l-9.79,8.7a1.09,1.09,0,0,0-.37.82v10.4l-4.21,4.21-.08-.07-1.53,1.53.08.07-6.15,6.15-.06-.06L206.83,325l.06.05L200,332l0,0-1.53,1.53,0,0-7.75,7.75h0l-1.59,1.6h0L186.91,345a1.09,1.09,0,1,0,1.56,1.53l2.18-2.18,0,.07,1.58-1.59,0-.08L200,335l0,0,1.53-1.53,0,0,6.93-6.93,0,0,1.53-1.53,0,0,3-3,3.16-3.14h0l1.54-1.52,0,0,4.18-4.18h10.43a1.09,1.09,0,0,0,.82-.37l8.7-9.79A1.15,1.15,0,0,0,241,301.21ZM231.77,311h-9.28v-9.31l7.61-6.76v7.37a1.13,1.13,0,0,0,1.09,1.09h7.34Z" style="fill:#eb1c24"/><polygon points="187.69 329.49 187.69 329.49 187.69 329.49 187.69 329.49" style="fill:#163b4d"/><path d="M169.2,345.8a18.49,18.49,0,1,0,32.32-12.26L200,335.08a16.32,16.32,0,1,1-12.31-5.59h0a16.22,16.22,0,0,1,10.7,4l1.53-1.53A18.49,18.49,0,0,0,169.2,345.8Z" style="fill:#163b4d"/></g></g></svg>