<svg xmlns="http://www.w3.org/2000/svg" viewBox="0 0 26.76 43.06"><title>icon__marker</title><g id="Layer_2" data-name="Layer 2"><g id="Contact_Us" data-name="Contact Us"><path d="M13.38,0A13.38,13.38,0,0,0,2.29,5.89,13.42,13.42,0,0,0,.07,12a14.46,14.46,0,0,0,.55,5.4,36.65,36.65,0,0,0,2.22,5.81c.95,2,2,4,3.17,5.93A73.07,73.07,0,0,0,12.86,39l.06.07a.66.66,0,0,0,.94,0,73.26,73.26,0,0,0,6.84-9.77c1.15-1.93,2.22-3.9,3.18-5.93a37.44,37.44,0,0,0,2.24-5.82,14.72,14.72,0,0,0,.59-5.38A13.38,13.38,0,0,0,13.52,0h-.13a.67.67,0,0,0-.66.66.67.67,0,0,0,.66.66A13.3,13.3,0,0,1,15,1.43h.08l.19,0,.38.07.81.19a12.71,12.71,0,0,1,1.5.5l.07,0,.17.08.34.16c.24.12.49.24.72.38a12.51,12.51,0,0,1,1.31.85l.15.11.06,0,.29.24c.21.17.41.35.6.54A12.75,12.75,0,0,1,22.76,5.8l.12.15,0,.06.22.3c.16.22.31.44.45.67a12.67,12.67,0,0,1,.75,1.37l.15.34,0,.07L24.6,9c.1.26.19.52.27.78a12.48,12.48,0,0,1,.38,1.55,10.28,10.28,0,0,1,.17,1.51,11.4,11.4,0,0,1,0,1.32c0,.19,0,.38-.05.57s0,.1,0,.14c0-.19,0,0,0,0s0,.23-.05.34a20.4,20.4,0,0,1-.64,2.62c-.3,1-.64,1.9-1,2.83l-.15.35,0,.08-.08.18L23,22c-.23.5-.46,1-.7,1.49-1,2-2.09,4-3.27,5.9q-1.54,2.52-3.25,4.93-.76,1.07-1.55,2.1l-.06.09,0,0-.19.25-.38.47-.69.84h.94l-.75-.91-.38-.48-.19-.25,0,0-.13-.17c-.58-.76-1.15-1.54-1.7-2.33Q8.8,31.28,7.14,28.48C6,26.55,4.92,24.58,4,22.55c-.23-.49-.45-1-.66-1.47l0-.08-.07-.17-.14-.35-.29-.75c-.35-.91-.66-1.83-.91-2.77-.12-.43-.22-.87-.31-1.3,0-.2-.08-.4-.11-.6l0-.29c0,.18,0,0,0,0l0-.19a12,12,0,0,1,0-2.79c0,.14,0-.07,0-.08l0-.19c0-.13,0-.25.07-.38s.12-.54.19-.81a12.71,12.71,0,0,1,.5-1.5l0-.07.08-.17.16-.34c.12-.24.24-.49.38-.72a12.52,12.52,0,0,1,.85-1.31c.11-.16.18-.24.36-.45s.32-.38.49-.56a12.66,12.66,0,0,1,1-1L5.84,4,6,3.87l.06,0,.61-.43a12.44,12.44,0,0,1,1.24-.73l.62-.3.17-.08.07,0,.35-.14a12.81,12.81,0,0,1,1.4-.43l.69-.15.38-.07.19,0h.08a13.09,13.09,0,0,1,1.52-.09A.67.67,0,0,0,14,.68.66.66,0,0,0,13.38,0Z" style="fill:#163b4d"/><path d="M13.38,19.86a7.89,7.89,0,0,1-.79,0h-.08l-.19,0-.44-.09a7,7,0,0,1-.73-.22,4.39,4.39,0,0,1-.65-.28c-.22-.11-.44-.24-.65-.37l-.31-.21L9.4,18.5l-.11-.09a7.15,7.15,0,0,1-1.08-1.1l0-.06-.11-.15-.2-.31a7.59,7.59,0,0,1-.39-.71,4.15,4.15,0,0,1-.24-.6,7.3,7.3,0,0,1-.22-.8c0-.13,0-.25-.07-.38s0,.13,0-.08,0-.13,0-.2a7.22,7.22,0,0,1,0-.86c0-.13,0-.26,0-.39s0-.13,0-.2,0-.22,0-.08a7.18,7.18,0,0,1,.4-1.54s.08-.2,0-.07l.08-.17c.06-.13.13-.26.2-.39s.25-.43.39-.64l.22-.3,0-.06.16-.19A6.84,6.84,0,0,1,9,8.58l.28-.25.14-.12h0l.1-.07a7.19,7.19,0,0,1,1.35-.77l.07,0,.18-.07.36-.12a6.93,6.93,0,0,1,.81-.2l.19,0h.08l.39,0a7.24,7.24,0,0,1,.86,0l.39,0h.08l.19,0a7.05,7.05,0,0,1,.81.19l.36.12.18.07.07,0a7,7,0,0,1,.73.36,5.63,5.63,0,0,1,1.17.85,7.19,7.19,0,0,1,.52.53,4.11,4.11,0,0,1,.43.55c.14.2.27.42.39.63l.17.33.08.17.05.12v0a7.14,7.14,0,0,1,.42,1.53c0,.21,0-.13,0,.08s0,.13,0,.2,0,.26,0,.39a7.67,7.67,0,0,1,0,.86c0,.06,0,.13,0,.2s0,.22,0,.08c0,.13,0,.25-.07.38a7.19,7.19,0,0,1-.21.8,6.65,6.65,0,0,1-1.49,2.46c-.16.16-.32.32-.49.47l-.24.2-.06,0-.15.11a7.22,7.22,0,0,1-1.19.67h0l-.18.07-.36.13a7,7,0,0,1-.68.18,4.43,4.43,0,0,1-.59.09c-.25,0-.49,0-.73,0a.66.66,0,1,0,0,1.33,7.83,7.83,0,1,0-7-11.27,7.83,7.83,0,0,0,7,11.26.66.66,0,1,0,0-1.32Z" style="fill:#163b4d"/><path d="M20.4,34.1c.29.14.58.28.86.45l.39.24.18.13L22,35a5.87,5.87,0,0,1,.6.54c.09.09.17.19.25.29l0,.06.13.2a3.17,3.17,0,0,1,.17.31s.08.19,0,0l.06.16a2.71,2.71,0,0,1,.08.32s0,.21,0,0a2.1,2.1,0,0,1,0,.22,2.38,2.38,0,0,1,0,.26s0,.19,0,0l0,.12a2.65,2.65,0,0,1-.15.51c.08-.2,0,.06-.06.11l-.13.23-.15.22c-.09.13.09-.11,0,0l-.12.14a5,5,0,0,1-.41.42l-.23.2s-.16.13,0,0l-.17.13a9.44,9.44,0,0,1-2.66,1.3,19.17,19.17,0,0,1-7.68.8A17.67,17.67,0,0,1,7.93,41a10,10,0,0,1-2.78-1.24l-.4-.28c-.06,0-.06,0,0,0l-.12-.1-.19-.17-.32-.31L4,38.72l-.06-.07c-.1-.13.09.12,0,0a3.47,3.47,0,0,1-.22-.33l-.1-.19,0-.08c-.06-.14.06.14,0,0a2.79,2.79,0,0,1-.12-.39c0-.07,0-.13,0-.2,0,.22,0,0,0-.07s0-.12,0-.18,0-.32,0-.15a2.72,2.72,0,0,1,.14-.53c0-.07,0-.07,0,0l.07-.16.14-.25.17-.25h0L4,35.71a6.53,6.53,0,0,1,2.25-1.57.67.67,0,0,0,.24-.91A.68.68,0,0,0,5.63,33c-1.93.91-4.06,2.7-3.46,5.09C2.62,39.87,4.44,41,6,41.7a19,19,0,0,0,7.61,1.36,18.35,18.35,0,0,0,7.45-1.52c1.51-.69,3.16-1.87,3.54-3.59.52-2.38-1.65-4.12-3.56-5a.68.68,0,0,0-.91.24.66.66,0,0,0,.23.91Z" style="fill:#eb1c24"/></g></g></svg>