<svg xmlns="http://www.w3.org/2000/svg" xmlns:xlink="http://www.w3.org/1999/xlink" viewBox="0 0 359.38 83.68"><defs><style>.a{fill:url(#a);}.b{fill:url(#b);}.c{fill:url(#c);}.d{fill:url(#d);}.e{fill:url(#e);}.f{fill:url(#f);}.g{fill:url(#g);}.h{fill:url(#h);}.i{fill:url(#i);}.j{fill:url(#j);}.k{fill:url(#k);}.l{fill:url(#l);}.m{fill:url(#m);}.n{fill:url(#n);}.o{fill:url(#o);}.p{fill:url(#p);}.q{fill:url(#q);}.r{fill:url(#r);}.s{fill:url(#s);}.t{fill:url(#t);}.u{fill:url(#u);}.v{fill:url(#v);}.w{fill:url(#w);}.x{fill:url(#x);}.y{fill:url(#y);}.z{fill:url(#z);}.aa{fill:url(#aa);}</style><linearGradient id="a" x1="183.24" x2="183.24" y2="83.68" gradientUnits="userSpaceOnUse"><stop offset="0.58" stop-color="#ff0096"/><stop offset="1" stop-color="#ff0096"/></linearGradient><linearGradient id="b" x1="175.19" x2="175.19" y2="83.68" xlink:href="#a"/><linearGradient id="c" x1="175.19" y1="1.09" x2="175.19" y2="84.09" gradientUnits="userSpaceOnUse"><stop offset="0" stop-color="#0ac4fb"/><stop offset="0.08" stop-color="#0ec1f9"/><stop offset="0.15" stop-color="#19b8f5"/><stop offset="0.23" stop-color="#2ca9ed"/><stop offset="0.3" stop-color="#4793e2"/><stop offset="0.37" stop-color="#6978d4"/><stop offset="0.44" stop-color="#9456c2"/><stop offset="0.51" stop-color="#c52eae"/><stop offset="0.58" stop-color="#fe0197"/><stop offset="0.58" stop-color="#ff0096"/><stop offset="1" stop-color="#ff0096"/></linearGradient><linearGradient id="d" x1="28.13" y1="33.77" x2="28.13" y2="78.97" xlink:href="#a"/><linearGradient id="e" x1="28.13" y1="1.09" x2="28.13" y2="84.09" xlink:href="#c"/><linearGradient id="f" x1="138.23" y1="16.47" x2="138.23" y2="79.03" xlink:href="#a"/><linearGradient id="g" x1="138.23" y1="1.09" x2="138.23" y2="84.09" xlink:href="#c"/><linearGradient id="h" x1="343.5" y1="16.67" x2="343.5" y2="78.96" xlink:href="#a"/><linearGradient id="i" x1="343.5" y1="1.09" x2="343.5" y2="84.09" xlink:href="#c"/><linearGradient id="j" x1="241.44" y1="33.87" x2="241.44" y2="78.99" xlink:href="#a"/><linearGradient id="k" x1="241.44" y1="1.09" x2="241.44" y2="84.09" xlink:href="#c"/><linearGradient id="l" x1="208.21" y1="11.6" x2="208.21" y2="54.96" xlink:href="#a"/><linearGradient id="m" x1="208.21" y1="1.09" x2="208.21" y2="84.09" xlink:href="#c"/><linearGradient id="n" x1="96.15" y1="33.89" x2="96.15" y2="78.99" xlink:href="#a"/><linearGradient id="o" x1="96.15" y1="1.09" x2="96.15" y2="84.09" xlink:href="#c"/><linearGradient id="p" x1="301.46" y1="33.88" x2="301.46" y2="78.99" xlink:href="#a"/><linearGradient id="q" x1="301.46" y1="1.09" x2="301.46" y2="84.09" xlink:href="#c"/><linearGradient id="r" x1="67.88" y1="33.88" x2="67.88" y2="79.16" xlink:href="#a"/><linearGradient id="s" x1="67.88" y1="1.09" x2="67.88" y2="84.09" xlink:href="#c"/><linearGradient id="t" x1="273.11" y1="33.73" x2="273.11" y2="78.97" xlink:href="#a"/><linearGradient id="u" x1="273.11" y1="1.09" x2="273.11" y2="84.09" xlink:href="#c"/><linearGradient id="v" x1="198.37" y1="59.02" x2="198.37" y2="80.2" xlink:href="#a"/><linearGradient id="w" x1="198.37" y1="1.09" x2="198.37" y2="84.09" xlink:href="#c"/><linearGradient id="x" x1="67.9" y1="16.89" x2="67.9" y2="27.14" xlink:href="#a"/><linearGradient id="y" x1="67.9" y1="1.09" x2="67.9" y2="84.09" xlink:href="#c"/><linearGradient id="z" x1="273.1" y1="16.86" x2="273.1" y2="27.17" xlink:href="#a"/><linearGradient id="aa" x1="273.1" y1="1.09" x2="273.1" y2="84.09" xlink:href="#c"/></defs><title>Asset 2</title><path class="a" d="M183.27,0l-.41.09c-.07.33-.15.67-.23,1h1.21Z"/><path class="b" d="M179,16.89c-1.86,6.15-4.3,12.12-6.47,18.17a10.89,10.89,0,0,0-.73,2.88c-.12,2,0,4-.08,6a65.42,65.42,0,0,1-4.61,22.44,62.72,62.72,0,0,1-8.09,14.79c-.52.7-.92,1.49-1.38,2.23l.28.3a6.28,6.28,0,0,0,1.24-.16c1.15-.35,2.3-.71,3.41-1.16,9.35-3.81,17-9.64,21.84-18.71a61.81,61.81,0,0,0,5.19-13.25,77,77,0,0,0,3.08-19.25,51.67,51.67,0,0,0-4.92-22.32c-1.21-2.63-2.6-5.17-3.95-7.74h-1.21l-.06.25C181.42,6.53,180.57,11.81,179,16.89Z"/><path class="c" d="M179,16.89c-1.86,6.15-4.3,12.12-6.47,18.17a10.89,10.89,0,0,0-.73,2.88c-.12,2,0,4-.08,6a65.42,65.42,0,0,1-4.61,22.44,62.72,62.72,0,0,1-8.09,14.79c-.52.7-.92,1.49-1.38,2.23l.28.3a6.28,6.28,0,0,0,1.24-.16c1.15-.35,2.3-.71,3.41-1.16,9.35-3.81,17-9.64,21.84-18.71a61.81,61.81,0,0,0,5.19-13.25,77,77,0,0,0,3.08-19.25,51.67,51.67,0,0,0-4.92-22.32c-1.21-2.63-2.6-5.17-3.95-7.74h-1.21l-.06.25C181.42,6.53,180.57,11.81,179,16.89Z"/><path class="d" d="M51.89,35.39c-.69,2.47-1.36,4.94-2,7.4q-4,14.58-8,29.16a13.52,13.52,0,0,1-.6,1.56l-.43,0c-.19-.57-.42-1.14-.57-1.73q-4.73-18-9.43-36c-.45-1.7-.67-1.86-2.53-1.87-2.11,0-2.27.09-2.74,1.87q-4.82,18-9.62,36a17.81,17.81,0,0,1-.61,1.68l-.39,0a8.41,8.41,0,0,1-.53-1.24c-.89-3.24-1.76-6.49-2.64-9.73Q8.11,49,4.42,35.42C4.05,34.07,1.3,33.25.27,34.18A1.19,1.19,0,0,0,0,35a6.42,6.42,0,0,0,.3,1.28q3.51,12.17,7,24.32c1.61,5.57,3.23,11.14,4.8,16.72A1.84,1.84,0,0,0,14.24,79c.36,0,.72,0,1.08,0,2.32,0,2.41-.09,3-2.35q4.51-17.35,9.05-34.71a9.92,9.92,0,0,1,.55-1.36h.48c.19.58.42,1.16.57,1.75q4.55,17.28,9.08,34.57c.5,1.87.77,2.07,2.63,2.09,3.15,0,3.14,0,4-3q4.07-14.19,8.11-28.37c1.14-4,2.28-8,3.38-12a1.79,1.79,0,0,0-.12-1.42C55.09,33.21,52.26,34.08,51.89,35.39Z"/><path class="e" d="M51.89,35.39c-.69,2.47-1.36,4.94-2,7.4q-4,14.58-8,29.16a13.52,13.52,0,0,1-.6,1.56l-.43,0c-.19-.57-.42-1.14-.57-1.73q-4.73-18-9.43-36c-.45-1.7-.67-1.86-2.53-1.87-2.11,0-2.27.09-2.74,1.87q-4.82,18-9.62,36a17.81,17.81,0,0,1-.61,1.68l-.39,0a8.41,8.41,0,0,1-.53-1.24c-.89-3.24-1.76-6.49-2.64-9.73Q8.11,49,4.42,35.42C4.05,34.07,1.3,33.25.27,34.18A1.19,1.19,0,0,0,0,35a6.42,6.42,0,0,0,.3,1.28q3.51,12.17,7,24.32c1.61,5.57,3.23,11.14,4.8,16.72A1.84,1.84,0,0,0,14.24,79c.36,0,.72,0,1.08,0,2.32,0,2.41-.09,3-2.35q4.51-17.35,9.05-34.71a9.92,9.92,0,0,1,.55-1.36h.48c.19.58.42,1.16.57,1.75q4.55,17.28,9.08,34.57c.5,1.87.77,2.07,2.63,2.09,3.15,0,3.14,0,4-3q4.07-14.19,8.11-28.37c1.14-4,2.28-8,3.38-12a1.79,1.79,0,0,0-.12-1.42C55.09,33.21,52.26,34.08,51.89,35.39Z"/><path class="f" d="M143.45,34c-2.83-.1-5.68-.11-8.51,0-3,.13-5.64,1.12-7.39,3.78a7.63,7.63,0,0,1-.82.74c-.09-.85-.19-1.38-.19-1.91,0-4,0-8.08,0-12.11,0-2,0-4.09,0-6.12a2,2,0,0,0-.7-1.49c-1.89-1-3.46,0-3.48,2.16V76.24a3.9,3.9,0,0,0,.09,1.54,2.34,2.34,0,0,0,1.17,1.11,2.79,2.79,0,0,0,1.76,0,2.26,2.26,0,0,0,1.13-1.13,4.12,4.12,0,0,0,.07-1.54c0-10,0-20,0-30,0-4.76,2.66-8,7.3-8.42a53.55,53.55,0,0,1,9.56,0,6.7,6.7,0,0,1,6.21,5.36,16,16,0,0,1,.49,4c0,9.72,0,19.44,0,29.16a4.13,4.13,0,0,0,.08,1.54,2.25,2.25,0,0,0,1.05,1,4,4,0,0,0,1.31.06c1.1.07,1.61-.42,1.61-1.55,0-11,.08-21.92-.08-32.87A10.7,10.7,0,0,0,143.45,34Z"/><path class="g" d="M143.45,34c-2.83-.1-5.68-.11-8.51,0-3,.13-5.64,1.12-7.39,3.78a7.63,7.63,0,0,1-.82.74c-.09-.85-.19-1.38-.19-1.91,0-4,0-8.08,0-12.11,0-2,0-4.09,0-6.12a2,2,0,0,0-.7-1.49c-1.89-1-3.46,0-3.48,2.16V76.24a3.9,3.9,0,0,0,.09,1.54,2.34,2.34,0,0,0,1.17,1.11,2.79,2.79,0,0,0,1.76,0,2.26,2.26,0,0,0,1.13-1.13,4.12,4.12,0,0,0,.07-1.54c0-10,0-20,0-30,0-4.76,2.66-8,7.3-8.42a53.55,53.55,0,0,1,9.56,0,6.7,6.7,0,0,1,6.21,5.36,16,16,0,0,1,.49,4c0,9.72,0,19.44,0,29.16a4.13,4.13,0,0,0,.08,1.54,2.25,2.25,0,0,0,1.05,1,4,4,0,0,0,1.31.06c1.1.07,1.61-.42,1.61-1.55,0-11,.08-21.92-.08-32.87A10.7,10.7,0,0,0,143.45,34Z"/><path class="h" d="M348.82,34c-2.91-.14-5.84-.12-8.75,0a8.62,8.62,0,0,0-7.28,3.75,5,5,0,0,0-.34.65l-.55-.2c0-.56-.15-1.12-.15-1.69,0-5.91,0-11.83,0-17.75,0-1.82-.27-2.07-2.1-2.06h-.72a1.2,1.2,0,0,0-1.3,1.38c0,.68.08,1.35.08,2q0,27.72,0,55.44c0,.68-.07,1.35-.08,2a1.2,1.2,0,0,0,1.3,1.38h1.32a1.29,1.29,0,0,0,1.49-1.45c0-.52,0-1,0-1.56,0-9.84,0-19.68,0-29.52,0-4.85,2.54-8.1,7.13-8.58a56,56,0,0,1,10,0,6.2,6.2,0,0,1,5.57,4.33,14.62,14.62,0,0,1,.81,4.68c.08,10.08,0,20.16,0,30.24,0,1.62.32,1.87,2,1.88s2-.2,2-1.77c0-10.76.05-21.52,0-32.28A10.71,10.71,0,0,0,348.82,34Z"/><path class="i" d="M348.82,34c-2.91-.14-5.84-.12-8.75,0a8.62,8.62,0,0,0-7.28,3.75,5,5,0,0,0-.34.65l-.55-.2c0-.56-.15-1.12-.15-1.69,0-5.91,0-11.83,0-17.75,0-1.82-.27-2.07-2.1-2.06h-.72a1.2,1.2,0,0,0-1.3,1.38c0,.68.08,1.35.08,2q0,27.72,0,55.44c0,.68-.07,1.35-.08,2a1.2,1.2,0,0,0,1.3,1.38h1.32a1.29,1.29,0,0,0,1.49-1.45c0-.52,0-1,0-1.56,0-9.84,0-19.68,0-29.52,0-4.85,2.54-8.1,7.13-8.58a56,56,0,0,1,10,0,6.2,6.2,0,0,1,5.57,4.33,14.62,14.62,0,0,1,.81,4.68c.08,10.08,0,20.16,0,30.24,0,1.62.32,1.87,2,1.88s2-.2,2-1.77c0-10.76.05-21.52,0-32.28A10.71,10.71,0,0,0,348.82,34Z"/><path class="j" d="M257.33,45.17c-.12-6.33-4.44-10.93-10.54-11.21-2.95-.13-5.92-.13-8.87,0a8.68,8.68,0,0,0-7.12,3.61,7.48,7.48,0,0,1-.94.87c-.06-1.14-.1-2-.13-2.76-.06-1.57-.3-1.79-2.12-1.79s-2.09.22-2.09,1.81q0,20.69,0,41.38c0,1.55.31,1.83,1.83,1.85a2.57,2.57,0,0,0,1.18,0,2.79,2.79,0,0,0,1.13-1.13,3.92,3.92,0,0,0,.08-1.54q0-15.06,0-30.11c0-4.6,2.62-7.82,7.16-8.29a51.75,51.75,0,0,1,9.8,0c3.42.27,5.77,2.79,6.33,6.24a21.16,21.16,0,0,1,.28,3.46q0,14.46,0,28.91a11.55,11.55,0,0,0,.05,1.44c0,.29.21.79.37.81a9,9,0,0,0,2.92.1c.33-.07.67-1.09.67-1.68.05-5.88,0-11.76,0-17.63C257.36,54.69,257.42,49.93,257.33,45.17Z"/><path class="k" d="M257.33,45.17c-.12-6.33-4.44-10.93-10.54-11.21-2.95-.13-5.92-.13-8.87,0a8.68,8.68,0,0,0-7.12,3.61,7.48,7.48,0,0,1-.94.87c-.06-1.14-.1-2-.13-2.76-.06-1.57-.3-1.79-2.12-1.79s-2.09.22-2.09,1.81q0,20.69,0,41.38c0,1.55.31,1.83,1.83,1.85a2.57,2.57,0,0,0,1.18,0,2.79,2.79,0,0,0,1.13-1.13,3.92,3.92,0,0,0,.08-1.54q0-15.06,0-30.11c0-4.6,2.62-7.82,7.16-8.29a51.75,51.75,0,0,1,9.8,0c3.42.27,5.77,2.79,6.33,6.24a21.16,21.16,0,0,1,.28,3.46q0,14.46,0,28.91a11.55,11.55,0,0,0,.05,1.44c0,.29.21.79.37.81a9,9,0,0,0,2.92.1c.33-.07.67-1.09.67-1.68.05-5.88,0-11.76,0-17.63C257.36,54.69,257.42,49.93,257.33,45.17Z"/><path class="l" d="M225.72,27.59q-4-7.21-8.13-14.41a11.59,11.59,0,0,0-1.39-1.58C212.78,29.44,202.65,42.83,190.36,55a8.52,8.52,0,0,0,2.33-.67C196.3,52.57,200,51,203.46,49c8.37-4.61,15.37-10.9,21.62-18.07C226,30,226.44,28.88,225.72,27.59Z"/><path class="m" d="M225.72,27.59q-4-7.21-8.13-14.41a11.59,11.59,0,0,0-1.39-1.58C212.78,29.44,202.65,42.83,190.36,55a8.52,8.52,0,0,0,2.33-.67C196.3,52.57,200,51,203.46,49c8.37-4.61,15.37-10.9,21.62-18.07C226,30,226.44,28.88,225.72,27.59Z"/><path class="n" d="M103.23,56c-4.18-1.47-8.26-3.24-12.38-4.9a13.34,13.34,0,0,1-1.61-.79,5.4,5.4,0,0,1-3-5.18c0-.44,0-.88,0-1.32,0-3.33,1.67-5.39,5-6A15.29,15.29,0,0,1,94,37.47c4.2,0,8.4,0,12.6,0a2,2,0,0,0,1.51-.63,1.82,1.82,0,0,0-1.72-2.88c-4.72,0-9.44-.07-14.16,0a18.92,18.92,0,0,0-4.59.77,7.53,7.53,0,0,0-5.32,5.54,12.32,12.32,0,0,0-.51,3.06c-.12,5.31,1.35,8.09,5.54,10.26a49.82,49.82,0,0,0,4.62,2c3.13,1.23,6.27,2.42,9.4,3.64a7.19,7.19,0,0,1,4.83,7c0,1,0,1.92,0,2.88-.06,3-1.45,4.93-4.38,5.66a22.93,22.93,0,0,1-5.1.59c-4.24.09-8.48,0-12.72,0-1.51,0-1.78.3-1.78,1.73S82.54,78.94,84,79c2.6,0,5.2,0,7.8,0,2.32,0,4.64.09,7,0a28.49,28.49,0,0,0,5.21-.69,7.83,7.83,0,0,0,6.39-7.2,32,32,0,0,0,0-6.34C109.91,60.24,107.46,57.46,103.23,56Z"/><path class="o" d="M103.23,56c-4.18-1.47-8.26-3.24-12.38-4.9a13.34,13.34,0,0,1-1.61-.79,5.4,5.4,0,0,1-3-5.18c0-.44,0-.88,0-1.32,0-3.33,1.67-5.39,5-6A15.29,15.29,0,0,1,94,37.47c4.2,0,8.4,0,12.6,0a2,2,0,0,0,1.51-.63,1.82,1.82,0,0,0-1.72-2.88c-4.72,0-9.44-.07-14.16,0a18.92,18.92,0,0,0-4.59.77,7.53,7.53,0,0,0-5.32,5.54,12.32,12.32,0,0,0-.51,3.06c-.12,5.31,1.35,8.09,5.54,10.26a49.82,49.82,0,0,0,4.62,2c3.13,1.23,6.27,2.42,9.4,3.64a7.19,7.19,0,0,1,4.83,7c0,1,0,1.92,0,2.88-.06,3-1.45,4.93-4.38,5.66a22.93,22.93,0,0,1-5.1.59c-4.24.09-8.48,0-12.72,0-1.51,0-1.78.3-1.78,1.73S82.54,78.94,84,79c2.6,0,5.2,0,7.8,0,2.32,0,4.64.09,7,0a28.49,28.49,0,0,0,5.21-.69,7.83,7.83,0,0,0,6.39-7.2,32,32,0,0,0,0-6.34C109.91,60.24,107.46,57.46,103.23,56Z"/><path class="p" d="M309.05,56.2c-4.08-1.54-8.11-3.2-12.16-4.8-4.64-1.83-5.56-3.23-5.49-8.2a4.92,4.92,0,0,1,3.14-4.82A13,13,0,0,1,299,37.5c4.35-.12,8.72-.06,13.08,0,1.18,0,1.5-.64,1.49-1.68,0-1.43-.25-1.84-1.43-1.84-5.2,0-10.41-.14-15.6.06s-8.28,2.62-9.05,7a22.83,22.83,0,0,0,.09,6.65,6.49,6.49,0,0,0,3.28,4.8,33.33,33.33,0,0,0,4.66,2.44c3.7,1.52,7.46,2.87,11.18,4.35a7,7,0,0,1,4.74,6.59c.06,1.08,0,2.16,0,3.24,0,3.06-1.44,5-4.43,5.74a23.61,23.61,0,0,1-5.1.59c-4.2.08-8.4,0-12.6,0-1.53,0-1.85.32-1.86,1.68s.37,1.84,1.85,1.85c2.56,0,5.12,0,7.68,0,2.32,0,4.64.09,7,0a28.6,28.6,0,0,0,5.21-.68,7.89,7.89,0,0,0,6.43-7.31,36.4,36.4,0,0,0-.11-6.68C315.06,60.26,312.82,57.63,309.05,56.2Z"/><path class="q" d="M309.05,56.2c-4.08-1.54-8.11-3.2-12.16-4.8-4.64-1.83-5.56-3.23-5.49-8.2a4.92,4.92,0,0,1,3.14-4.82A13,13,0,0,1,299,37.5c4.35-.12,8.72-.06,13.08,0,1.18,0,1.5-.64,1.49-1.68,0-1.43-.25-1.84-1.43-1.84-5.2,0-10.41-.14-15.6.06s-8.28,2.62-9.05,7a22.83,22.83,0,0,0,.09,6.65,6.49,6.49,0,0,0,3.28,4.8,33.33,33.33,0,0,0,4.66,2.44c3.7,1.52,7.46,2.87,11.18,4.35a7,7,0,0,1,4.74,6.59c.06,1.08,0,2.16,0,3.24,0,3.06-1.44,5-4.43,5.74a23.61,23.61,0,0,1-5.1.59c-4.2.08-8.4,0-12.6,0-1.53,0-1.85.32-1.86,1.68s.37,1.84,1.85,1.85c2.56,0,5.12,0,7.68,0,2.32,0,4.64.09,7,0a28.6,28.6,0,0,0,5.21-.68,7.89,7.89,0,0,0,6.43-7.31,36.4,36.4,0,0,0-.11-6.68C315.06,60.26,312.82,57.63,309.05,56.2Z"/><path class="r" d="M68.17,33.92A2.56,2.56,0,0,0,67,34,2.47,2.47,0,0,0,66,35a3.71,3.71,0,0,0-.07,1.42q0,20,0,39.95a6.8,6.8,0,0,0,.05,1.43,1.56,1.56,0,0,0,.58,1,2.18,2.18,0,0,0,3.41-2.08V54.17c0-6.16,0-12.31,0-18.47C69.91,34.19,69.65,34,68.17,33.92Z"/><path class="s" d="M68.17,33.92A2.56,2.56,0,0,0,67,34,2.47,2.47,0,0,0,66,35a3.71,3.71,0,0,0-.07,1.42q0,20,0,39.95a6.8,6.8,0,0,0,.05,1.43,1.56,1.56,0,0,0,.58,1,2.18,2.18,0,0,0,3.41-2.08V54.17c0-6.16,0-12.31,0-18.47C69.91,34.19,69.65,34,68.17,33.92Z"/><path class="t" d="M275.07,35a1.55,1.55,0,0,0-.59-.95,2.15,2.15,0,0,0-3.39,2q0,10.2,0,20.39t0,20.27c0,2.14.17,2.3,2.34,2.25l.48,0a1.1,1.1,0,0,0,1.19-1.2q0-.66,0-1.32V36.47A6.19,6.19,0,0,0,275.07,35Z"/><path class="u" d="M275.07,35a1.55,1.55,0,0,0-.59-.95,2.15,2.15,0,0,0-3.39,2q0,10.2,0,20.39t0,20.27c0,2.14.17,2.3,2.34,2.25l.48,0a1.1,1.1,0,0,0,1.19-1.2q0-.66,0-1.32V36.47A6.19,6.19,0,0,0,275.07,35Z"/><path class="v" d="M189.23,59c-.16.26-.25.35-.27.46a7.34,7.34,0,0,0-.14.94,30.83,30.83,0,0,0,5.09,18.65,2.15,2.15,0,0,0,2.21,1.11c2.93-.33,5.87-.65,8.8-1,1-.13,2-.38,3-.58l0-.36C199.36,74.18,193.31,67.63,189.23,59Z"/><path class="w" d="M189.23,59c-.16.26-.25.35-.27.46a7.34,7.34,0,0,0-.14.94,30.83,30.83,0,0,0,5.09,18.65,2.15,2.15,0,0,0,2.21,1.11c2.93-.33,5.87-.65,8.8-1,1-.13,2-.38,3-.58l0-.36C199.36,74.18,193.31,67.63,189.23,59Z"/><path class="x" d="M67.81,16.89c-1.62,0-1.9.22-1.92,1.58,0,2.36,0,4.72,0,7.07,0,1.1.44,1.66,1.57,1.6.4,0,.8,0,1.2,0a1.14,1.14,0,0,0,1.26-1.27c0-1.27,0-2.55,0-3.83h0c0-1.2,0-2.4,0-3.6C69.87,17.07,69.58,16.88,67.81,16.89Z"/><path class="y" d="M67.81,16.89c-1.62,0-1.9.22-1.92,1.58,0,2.36,0,4.72,0,7.07,0,1.1.44,1.66,1.57,1.6.4,0,.8,0,1.2,0a1.14,1.14,0,0,0,1.26-1.27c0-1.27,0-2.55,0-3.83h0c0-1.2,0-2.4,0-3.6C69.87,17.07,69.58,16.88,67.81,16.89Z"/><path class="z" d="M271.08,25.07a1.93,1.93,0,0,0,0,.24c0,1.58.25,1.81,1.8,1.83.36,0,.8.11,1.06-.06.45-.28,1.09-.72,1.1-1.12.1-2.63.1-5.27,0-7.9,0-.39-.64-.89-1.1-1.11a3.91,3.91,0,0,0-1.42-.05c-1,0-1.45.47-1.44,1.46,0,1.2,0,2.4,0,3.59h0Z"/><path class="aa" d="M271.08,25.07a1.93,1.93,0,0,0,0,.24c0,1.58.25,1.81,1.8,1.83.36,0,.8.11,1.06-.06.45-.28,1.09-.72,1.1-1.12.1-2.63.1-5.27,0-7.9,0-.39-.64-.89-1.1-1.11a3.91,3.91,0,0,0-1.42-.05c-1,0-1.45.47-1.44,1.46,0,1.2,0,2.4,0,3.59h0Z"/></svg>