<?xml version="1.0" encoding="utf-8"?>
<!-- Generator: Adobe Illustrator 22.1.0, SVG Export Plug-In . SVG Version: 6.00 Build 0)  -->
<svg version="1.1" id="Layer_1" xmlns="http://www.w3.org/2000/svg" xmlns:xlink="http://www.w3.org/1999/xlink" x="0px" y="0px"
	 viewBox="0 0 225.2 47.6" style="enable-background:new 0 0 225.2 47.6;" xml:space="preserve">
<style type="text/css">
	.st0{fill:#FFFFFF;}
</style>
<title>Lobuslogo_white-02</title>
<metadata><?xpacket begin="﻿" id="W5M0MpCehiHzreSzNTczkc9d"?>
<x:xmpmeta xmlns:x="adobe:ns:meta/" x:xmptk="Adobe XMP Core 5.6-c143 79.161356, 2017/09/07-01:11:22        ">
   <rdf:RDF xmlns:rdf="http://www.w3.org/1999/02/22-rdf-syntax-ns#">
      <rdf:Description rdf:about=""
            xmlns:dc="http://purl.org/dc/elements/1.1/">
         <dc:title>
            <rdf:Alt>
               <rdf:li xml:lang="x-default">Lobuslogo_white-02</rdf:li>
            </rdf:Alt>
         </dc:title>
      </rdf:Description>
   </rdf:RDF>
</x:xmpmeta>
                                                                                                    
                                                                                                    
                                                                                                    
                                                                                                    
                                                                                                    
                                                                                                    
                                                                                                    
                                                                                                    
                                                                                                    
                                                                                                    
                                                                                                    
                                                                                                    
                                                                                                    
                                                                                                    
                                                                                                    
                                                                                                    
                                                                                                    
                                                                                                    
                                                                                                    
                                                                                                    
                           
<?xpacket end="w"?></metadata>
<g>
	<path class="st0" d="M194.8,34.7c3.7,8.4,8.7,12.3,14.1,12.3c6.5,0,11.2-4,11.2-9.4c0-5.8-3.8-8.4-9.8-10.6l-4.4-1.6
		c-7.6-2.7-11.5-7.6-11.5-13.5c0-8.2,7.9-11.9,14.2-11.9c3.1,0,6.4,1,8.7,2.6c2.2,1.5,2.2-2.4,2.2-2.4h0.4l2.7,14.7l-0.5,0.1
		c-4.1-9.8-7.5-14.4-13.8-14.4c-4.7,0-9,3.1-9,8.3c0,4.9,2.7,8.1,8.3,10.1l4.4,1.6c7.1,2.5,13.2,6.3,13.2,13.5
		c0,8.3-8.2,13.5-16.4,13.5c-3.7,0-9.6-2.3-9.6-2.3c-2.3-0.5-2.2,2.1-2.2,2.1l-0.2,0l-2.4-12.6"/>
	<path class="st0" d="M36.4,32.1h0.4l-3.7,14.6H0v-0.6H5V1.9H0V1.3h16.1v0.6h-4.9v44.3h9.6C33.3,46.2,36.4,32.1,36.4,32.1z"/>
	<path class="st0" d="M66.9,47.5c-13,0-24.4-9.5-24.4-23.8C42.5,9.6,53.9,0,66.9,0s24.4,9.5,24.4,23.8
		C91.3,37.9,79.9,47.5,66.9,47.5z M65,46.8c12.3,0,19.7-14.3,19.7-27.2C84.7,7.1,77,0.8,68.8,0.8C56.5,0.8,49.1,15.1,49.1,28
		C49.1,40.5,56.8,46.8,65,46.8z"/>
	<path class="st0" d="M117,1.3c10.6,0,16.7,3.5,16.7,10.3c0,6.7-6.1,9.9-12.5,11.1v0.1c7.7,0.4,15.5,3.2,15.8,10.7
		c0.3,9.1-7.1,13.3-18.7,13.3H98.4v-0.6h4.9V1.9h-4.9V1.3H117z M117.3,1.9h-7.7v20.7h7.7c6.5,0,10-4.1,10-10.4S123.8,1.9,117.3,1.9z
		 M118.3,23.2h-8.7v23h8.7c8,0,11.8-4.4,11.8-11.5S126.3,23.2,118.3,23.2z"/>
	<path class="st0" d="M148.4,30V1.9h-4.9V1.3h16.1v0.6h-4.9v28.2c0,11.2,4.5,15.8,13.6,15.8c8.8,0,14.9-4,14.9-15.8V1.9h-4.9V1.3
		h10.6v0.6h-4.9v28.2c0,12.1-6.2,17.5-17,17.5C155,47.5,148.4,42.4,148.4,30z"/>
</g>
</svg>
