<svg xmlns="http://www.w3.org/2000/svg" xmlns:xlink="http://www.w3.org/1999/xlink" viewBox="0 0 174.12 37.28"><defs><linearGradient id="linear-gradient" x1="-209.89" y1="661.08" x2="-201.27" y2="661.08" gradientTransform="translate(846.03 -93.82) rotate(64.6)" gradientUnits="userSpaceOnUse"><stop offset="0.18" stop-color="#e50f26"/><stop offset="0.47" stop-color="#b92130"/><stop offset="0.62" stop-color="#a72a39"/><stop offset="0.88" stop-color="#813c4c"/></linearGradient><linearGradient id="linear-gradient-2" x1="-212.72" y1="677.43" x2="-208.41" y2="671.42" gradientTransform="translate(846.03 -93.82) rotate(64.6)" gradientUnits="userSpaceOnUse"><stop offset="0.48" stop-color="#e50f26"/><stop offset="0.68" stop-color="#b82231"/><stop offset="0.8" stop-color="#953242"/><stop offset="0.83" stop-color="#8b3747"/><stop offset="0.88" stop-color="#813c4c"/></linearGradient><linearGradient id="linear-gradient-3" x1="-193.82" y1="665.76" x2="-199.75" y2="669.19" gradientTransform="translate(846.03 -93.82) rotate(64.6)" gradientUnits="userSpaceOnUse"><stop offset="0.2" stop-color="#e50f26"/><stop offset="0.57" stop-color="#b92130"/><stop offset="0.65" stop-color="#a72a39"/><stop offset="0.79" stop-color="#813c4c"/></linearGradient><linearGradient id="linear-gradient-4" x1="-185.76" y1="687.29" x2="-188.87" y2="685.24" gradientTransform="translate(846.03 -93.82) rotate(64.6)" gradientUnits="userSpaceOnUse"><stop offset="0.18" stop-color="#e50f26"/><stop offset="0.47" stop-color="#b92130"/><stop offset="0.57" stop-color="#a72939"/><stop offset="0.79" stop-color="#783e50"/><stop offset="0.87" stop-color="#654759"/></linearGradient><linearGradient id="linear-gradient-5" x1="-173.76" y1="669.06" x2="-177.87" y2="664.95" gradientTransform="translate(846.03 -93.82) rotate(64.6)" gradientUnits="userSpaceOnUse"><stop offset="0" stop-color="#e50f26"/><stop offset="0.21" stop-color="#b92130"/><stop offset="0.35" stop-color="#a72a39"/><stop offset="0.59" stop-color="#813c4c"/></linearGradient><linearGradient id="linear-gradient-6" x1="-185.82" y1="676.22" x2="-190.42" y2="670.48" gradientTransform="translate(846.03 -93.82) rotate(64.6)" gradientUnits="userSpaceOnUse"><stop offset="0" stop-color="#7c4a5f"/><stop offset="0.37" stop-color="#654759"/></linearGradient><linearGradient id="linear-gradient-7" x1="-201.2" y1="681.98" x2="-189.21" y2="681.98" gradientTransform="translate(846.03 -93.82) rotate(64.6)" gradientUnits="userSpaceOnUse"><stop offset="0.11" stop-color="#4d4d63"/><stop offset="0.87" stop-color="#654759"/></linearGradient><linearGradient id="linear-gradient-8" x1="-203.45" y1="677.47" x2="-202.72" y2="680.84" gradientTransform="translate(846.03 -93.82) rotate(64.6)" gradientUnits="userSpaceOnUse"><stop offset="0.11" stop-color="#e50f26"/><stop offset="0.64" stop-color="#704255"/><stop offset="0.87" stop-color="#4d4d63"/></linearGradient><linearGradient id="linear-gradient-9" x1="-192.07" y1="659.49" x2="-186.09" y2="666.25" gradientTransform="translate(846.03 -93.82) rotate(64.6)" gradientUnits="userSpaceOnUse"><stop offset="0.23" stop-color="#e50f26"/><stop offset="0.52" stop-color="#b92130"/><stop offset="0.62" stop-color="#a72a39"/><stop offset="0.78" stop-color="#813c4c"/></linearGradient><linearGradient id="linear-gradient-10" x1="-194.35" y1="684.21" x2="-194.81" y2="692.49" gradientTransform="translate(846.03 -93.82) rotate(64.6)" gradientUnits="userSpaceOnUse"><stop offset="0.08" stop-color="#4d4d63"/><stop offset="0.74" stop-color="#e50f26"/><stop offset="0.8" stop-color="#e50f26"/></linearGradient><linearGradient id="linear-gradient-11" x1="-182.78" y1="691.41" x2="-188.74" y2="686.57" gradientTransform="translate(846.03 -93.82) rotate(64.6)" gradientUnits="userSpaceOnUse"><stop offset="0.04" stop-color="#e70f1a"/><stop offset="0.46" stop-color="#813c4c"/><stop offset="0.78" stop-color="#4d4d63"/></linearGradient><linearGradient id="linear-gradient-12" x1="-135.58" y1="793.42" x2="-139.63" y2="790.75" gradientTransform="matrix(0.3, 0.95, -0.95, 0.3, 939.61, -73.93)" gradientUnits="userSpaceOnUse"><stop offset="0.29" stop-color="#7a3d50"/><stop offset="0.34" stop-color="#6d4355"/><stop offset="0.65" stop-color="#e50f26"/></linearGradient><linearGradient id="linear-gradient-13" x1="-188.81" y1="685.63" x2="-188.81" y2="685.63" xlink:href="#linear-gradient-4"/><linearGradient id="linear-gradient-14" x1="-189.22" y1="683.31" x2="-191.46" y2="684.04" gradientTransform="translate(846.03 -93.82) rotate(64.6)" gradientUnits="userSpaceOnUse"><stop offset="0.07" stop-color="#e50f26"/><stop offset="0.61" stop-color="#744153"/><stop offset="0.87" stop-color="#654759"/></linearGradient><linearGradient id="linear-gradient-15" x1="-197.83" y1="679.57" x2="-193.59" y2="679.57" gradientTransform="translate(846.03 -93.82) rotate(64.6)" gradientUnits="userSpaceOnUse"><stop offset="0.3" stop-color="#e50f26"/><stop offset="0.61" stop-color="#b92130"/><stop offset="0.68" stop-color="#a72939"/><stop offset="0.82" stop-color="#783e50"/><stop offset="0.87" stop-color="#654759"/></linearGradient><linearGradient id="linear-gradient-16" x1="-207.87" y1="684.47" x2="-198.37" y2="684.47" gradientTransform="translate(846.03 -93.82) rotate(64.6)" gradientUnits="userSpaceOnUse"><stop offset="0.01" stop-color="#654759"/><stop offset="0.49" stop-color="#4d4d63"/><stop offset="0.8" stop-color="#4e4d63"/></linearGradient><linearGradient id="linear-gradient-17" x1="-196.42" y1="684.65" x2="-188.92" y2="684.65" xlink:href="#linear-gradient-15"/><linearGradient id="linear-gradient-18" x1="-246.7" y1="537.72" x2="-243.2" y2="537.72" gradientTransform="translate(723.9 -100.51) rotate(54.21)" xlink:href="#linear-gradient-15"/><linearGradient id="linear-gradient-19" x1="-205.54" y1="679.31" x2="-201.13" y2="679.31" xlink:href="#linear-gradient-15"/><linearGradient id="linear-gradient-20" x1="-201.57" y1="680.18" x2="-196.73" y2="680.18" gradientTransform="translate(846.03 -93.82) rotate(64.6)" gradientUnits="userSpaceOnUse"><stop offset="0.31" stop-color="#b92130"/><stop offset="0.4" stop-color="#b42332"/><stop offset="0.59" stop-color="#863849"/><stop offset="0.72" stop-color="#654759"/></linearGradient><linearGradient id="linear-gradient-21" x1="1337.25" y1="37.73" x2="1338.77" y2="37.73" gradientTransform="translate(612.48 1283.23) rotate(-112.06)" gradientUnits="userSpaceOnUse"><stop offset="0.3" stop-color="#e50f26"/><stop offset="0.57" stop-color="#b92130"/><stop offset="0.69" stop-color="#a72939"/><stop offset="0.91" stop-color="#783e50"/><stop offset="1" stop-color="#654759"/></linearGradient></defs><title>logo</title><g id="Layer_2" data-name="Layer 2"><g id="Menu_Bar" data-name="Menu Bar"><polygon points="170.36 4.15 159 0 152.35 6.73 170.36 4.15" style="fill:url(#linear-gradient)"/><polygon points="149.92 7.89 147.24 0.66 146.26 1.13 145.73 9.73 149.92 7.89" style="fill:url(#linear-gradient-2)"/><polygon points="156.69 12.42 152.27 10.95 147.25 11.69 150.94 14.11 156.69 12.42" style="fill:#e70f1a"/><polygon points="161.68 16.32 159.69 7.12 153.51 17.66 153.84 19.59 161.68 16.32" style="fill:url(#linear-gradient-3)"/><path d="M145.68,29.65s.37,1.1,3.21,1.18l-6.19.08.73-2.16,2.29.43Z" style="fill:url(#linear-gradient-4)"/><polygon points="174.12 32.48 164.02 31.3 162.86 32.01 165.67 34.76 167.05 36.13 174.12 32.48" style="fill:url(#linear-gradient-5)"/><polygon points="161.22 26.97 151.88 24.25 150.53 29.26 161.36 27.6 161.22 26.97" style="fill:url(#linear-gradient-6)"/><path d="M149.22,15.37l-3.5,13.81-2.7-.24.63-1.39.12-1.84-1.2-.33L145,19.17l-2.82-.75a.86.86,0,0,0,.84-1c-.08-.62,4.45-1.82,4.45-1.82l.7,1,.88-1.76Z" style="fill:url(#linear-gradient-7)"/><polygon points="156.95 17.67 153.26 21.51 153.99 29.96 156.89 26.34 156.95 17.67" style="fill:#e70f1a"/><polygon points="147.47 15.63 143.58 12.15 143.02 17.42 147.47 15.63" style="fill:url(#linear-gradient-8)"/><polygon points="173.9 19.46 159.93 16.1 161.26 22.03 173.9 19.46" style="fill:url(#linear-gradient-9)"/><polygon points="160.78 32.17 153.62 36.09 158.66 37.28 166.94 33.69 160.78 32.17" style="fill:#e70f1a"/><path d="M135.6,27.73c.33-2.35,2-4,2.82-6.07l.46-1.15,2.71-2.11.72,0,2.68.75-1.63,5,1-.12.7,1.16-1.71,4.24-.39,1.38-4.55,2.56-2.22.36a40.68,40.68,0,0,1,0-4.71C136.12,28.79,135.56,28,135.6,27.73Z" style="fill:url(#linear-gradient-10)"/><path d="M137.31,34.48l-1,0-.15-.73,1.22-2.67-.37-.57a4.1,4.1,0,0,1,.21-1.25c.17-.25.28-.19.62-.14.53.08.62,0,.63.57s0,.84,0,1.26.16,1.63-.06,1.9l1.36-1.64,2.83-1,3.14.65,3.17,0,1.71,4.9a6,6,0,0,0,.52.89c-1.45-.42-3.14-1.23-4.65-1.27A57.55,57.55,0,0,1,137.31,34.48Z" style="fill:url(#linear-gradient-11)"/><polygon points="144.92 35.16 143.62 32.68 142.92 31.98 142.23 32.7 141.54 33.68 142.81 34.98 144.92 35.16" style="fill:url(#linear-gradient-12)"/><path d="M145.68,29.65" style="fill:url(#linear-gradient-13)"/><path d="M147.12,24s2.09,2.21,1.94,2.51-3.5,3.45-3.5,3.45l.48-6Z" style="fill:url(#linear-gradient-14)"/><polygon points="151.14 21.77 145.25 19.87 146.62 22.13 151.14 21.77" style="fill:url(#linear-gradient-15)"/><path d="M147.14,15.12l-3.14-3s-.37-.15-.52.17c0,0,0,.33,0,.43s0,1.1,0,1.1-.19.73-.06,1-.14,1-.14,1.22c0,1-.21,2.54-1.65,2-.24-.09-.46-.41-.69-.54a14.79,14.79,0,0,0-2.78-1L136.53,16l-3.25-1.09-.37-.1-.22,0,6.19,5.78,2.71-2.11,2.94,1.21,2.94-4Z" style="fill:url(#linear-gradient-16)"/><polygon points="145.33 26.02 144.22 24.61 145.19 21.46 145.73 21.35 145.85 23.01 146.41 25.13 144.7 29.07 145.41 29.06 145.24 29.74 143.9 29.75 144.99 26.85 145.33 26.02" style="fill:url(#linear-gradient-17)"/><polygon points="144.17 15.84 145.19 16.94 145.77 16.1 143.47 13.86 144.17 15.84" style="fill:url(#linear-gradient-18)"/><path d="M147.28,15.25l-3.34-3.11c-.39-.36-.61.55-.58.81s.42.65.7.94l1.65,1.66Z" style="fill:url(#linear-gradient-19)"/><path d="M144.39,20.76a1.22,1.22,0,0,1,0-.13,2,2,0,0,1,.13-.62c.33-1,.61-2.08,1-3.06a6,6,0,0,1,1-1.74,1.7,1.7,0,0,1,1.25-.48,10,10,0,0,0-.85,1.62c-.3.56-.6,1.12-.87,1.7a17.66,17.66,0,0,1-1.47,3.34A1.31,1.31,0,0,1,144.39,20.76Z" style="fill:url(#linear-gradient-20)"/><polygon points="144.29 29.4 145.44 29.61 145.56 28.93 144.87 28.97 144.52 28.34 144.29 29.4" style="fill:url(#linear-gradient-21)"/><path d="M7.4,29.13A2.76,2.76,0,0,1,8,30a3.39,3.39,0,0,1,.18,1.16A3.29,3.29,0,0,1,7,33.79a4.21,4.21,0,0,1-2.88,1,5.33,5.33,0,0,1-1.58-.25A6.1,6.1,0,0,1,1.14,34l-.36.61H.12L0,30.52H.68a8.89,8.89,0,0,0,.49,1.35A4.75,4.75,0,0,0,1.9,33a3.37,3.37,0,0,0,1,.78,3,3,0,0,0,1.35.29,3,3,0,0,0,1-.15A1.78,1.78,0,0,0,6,33.5a1.75,1.75,0,0,0,.4-.65A2.6,2.6,0,0,0,6.49,32a2.38,2.38,0,0,0-.4-1.32,2.47,2.47,0,0,0-1.19-.93l-1.24-.48c-.47-.17-.87-.34-1.21-.49A3.92,3.92,0,0,1,.89,27.59a3.06,3.06,0,0,1-.55-1.9,2.91,2.91,0,0,1,.28-1.26,3.29,3.29,0,0,1,.78-1,3.57,3.57,0,0,1,1.14-.68,3.9,3.9,0,0,1,1.38-.25,4,4,0,0,1,1.46.25,7,7,0,0,1,1.18.58l.34-.57h.67l.07,3.93H7q-.18-.67-.41-1.29a4.55,4.55,0,0,0-.6-1.12,2.72,2.72,0,0,0-.88-.77,2.58,2.58,0,0,0-1.27-.29,1.93,1.93,0,0,0-1.35.51,1.62,1.62,0,0,0-.56,1.24,2.14,2.14,0,0,0,.36,1.27,2.64,2.64,0,0,0,1,.83c.41.19.8.36,1.2.5s.77.29,1.14.45a9,9,0,0,1,1,.49A3.66,3.66,0,0,1,7.4,29.13Z" style="fill:#e71b28"/><path d="M21.09,34.56H16.18V34l.58-.05a1.78,1.78,0,0,0,.52-.1.71.71,0,0,0,.37-.3,1.06,1.06,0,0,0,.12-.53V28.77H12.2v4.12a1.13,1.13,0,0,0,.1.49.82.82,0,0,0,.38.35,2.11,2.11,0,0,0,.5.15,3.79,3.79,0,0,0,.57.08v.59H8.84V34l.58-.05a1.78,1.78,0,0,0,.52-.1.71.71,0,0,0,.37-.3,1.06,1.06,0,0,0,.12-.53V24.45a1.09,1.09,0,0,0-.11-.49.75.75,0,0,0-.38-.35,3.14,3.14,0,0,0-.55-.19,3.37,3.37,0,0,0-.55-.1v-.59h4.91v.59a3.66,3.66,0,0,0-.57.08,4.39,4.39,0,0,0-.5.12.6.6,0,0,0-.38.33,1.32,1.32,0,0,0-.1.51V28h5.56V24.45a1.09,1.09,0,0,0-.11-.49.75.75,0,0,0-.38-.35,3.14,3.14,0,0,0-.55-.19,3.37,3.37,0,0,0-.55-.1v-.59h4.91v.59a3.66,3.66,0,0,0-.57.08,4.39,4.39,0,0,0-.5.12.6.6,0,0,0-.38.33,1.32,1.32,0,0,0-.1.51v8.53a1.13,1.13,0,0,0,.1.49.82.82,0,0,0,.38.35,2.11,2.11,0,0,0,.5.15,3.79,3.79,0,0,0,.57.08Z" style="fill:#e71b28"/><path d="M33.79,34.56H28.87V34A5.07,5.07,0,0,0,30,33.8q.43-.13.43-.31a1.3,1.3,0,0,0,0-.18.91.91,0,0,0-.05-.19l-1-2.65H25.18q-.23.58-.38,1l-.26.8a5.61,5.61,0,0,0-.15.58,2.16,2.16,0,0,0,0,.37q0,.33.53.52a4.18,4.18,0,0,0,1.18.22v.59H21.6V34a3.44,3.44,0,0,0,.54-.1,1.72,1.72,0,0,0,.53-.21,2.08,2.08,0,0,0,.52-.47,3.11,3.11,0,0,0,.36-.68q.89-2.23,2-5l1.92-4.95h.67L32,32.77a2,2,0,0,0,.28.52,2,2,0,0,0,.44.39,1.84,1.84,0,0,0,.5.2,2.59,2.59,0,0,0,.52.09ZM29,29.72l-1.79-4.59-1.77,4.59Z" style="fill:#e71b28"/><path d="M42.29,25.94h-.58a3.91,3.91,0,0,0-.27-.71,6.37,6.37,0,0,0-.44-.78,3.88,3.88,0,0,0-.55-.67,1.1,1.1,0,0,0-.57-.33l-.65-.05-.73,0H38v9.47a1.09,1.09,0,0,0,.12.5.78.78,0,0,0,.41.35,4.89,4.89,0,0,0,.63.16,4.69,4.69,0,0,0,.75.11v.59H34.33V34L35,33.9a2.83,2.83,0,0,0,.66-.12.82.82,0,0,0,.4-.31,1,1,0,0,0,.13-.55V23.38H35.11c-.26,0-.5,0-.73.05a1,1,0,0,0-.57.33,4.39,4.39,0,0,0-.55.67,5.7,5.7,0,0,0-.44.8,4.8,4.8,0,0,0-.27.7H32V22.73H42.29Z" style="fill:#e71b28"/><path d="M53.63,25.94h-.58a3.91,3.91,0,0,0-.27-.71,6.37,6.37,0,0,0-.44-.78,3.88,3.88,0,0,0-.55-.67,1.1,1.1,0,0,0-.57-.33l-.65-.05-.73,0h-.48v9.47a1.09,1.09,0,0,0,.12.5.78.78,0,0,0,.41.35,4.89,4.89,0,0,0,.63.16,4.69,4.69,0,0,0,.75.11v.59H45.67V34l.71-.07a2.83,2.83,0,0,0,.66-.12.82.82,0,0,0,.4-.31,1,1,0,0,0,.13-.55V23.38H46.46c-.26,0-.5,0-.73.05a1,1,0,0,0-.57.33,4.39,4.39,0,0,0-.55.67,5.7,5.7,0,0,0-.44.8,4.8,4.8,0,0,0-.27.7h-.58V22.73H53.63Z" style="fill:#e71b28"/><path d="M64.52,31.08l-.23,3.48H54.47V34l.67-.07a2.31,2.31,0,0,0,.54-.11.76.76,0,0,0,.37-.33,1.09,1.09,0,0,0,.1-.51V24.45a1.2,1.2,0,0,0-.09-.49.71.71,0,0,0-.38-.35,2.92,2.92,0,0,0-.6-.19,4.92,4.92,0,0,0-.6-.1v-.59h9.16v2.85H63a3.86,3.86,0,0,0-.72-1.35,1.8,1.8,0,0,0-1.06-.78l-.62,0-.82,0H57.93v4.7h1.33A2.63,2.63,0,0,0,60.2,28a1.27,1.27,0,0,0,.52-.4,2.14,2.14,0,0,0,.31-.65,4.06,4.06,0,0,0,.17-.76h.63v4.64h-.63a3.72,3.72,0,0,0-.18-.85,2.18,2.18,0,0,0-.3-.65,1.2,1.2,0,0,0-.59-.42,3.08,3.08,0,0,0-.87-.1H57.93v3.54a3.73,3.73,0,0,0,.08.84.79.79,0,0,0,.29.47,1.28,1.28,0,0,0,.59.2,9.48,9.48,0,0,0,1.07,0h.73a7.52,7.52,0,0,0,.76,0,4.67,4.67,0,0,0,.65-.12,1,1,0,0,0,.48-.24,5.34,5.34,0,0,0,.81-1.21,8.14,8.14,0,0,0,.54-1.19Z" style="fill:#e71b28"/><path d="M77.25,34.56H74.07Q73,32.9,72.15,31.69T70.3,29.2H69.09V33a1.33,1.33,0,0,0,.09.51.65.65,0,0,0,.39.34,2.53,2.53,0,0,0,.53.11c.25,0,.46.05.63.06v.59h-5V34l.58-.06a2,2,0,0,0,.53-.11.73.73,0,0,0,.36-.32,1.12,1.12,0,0,0,.11-.53V24.4a1.49,1.49,0,0,0-.08-.52.61.61,0,0,0-.39-.34,3.5,3.5,0,0,0-.54-.14l-.57-.08v-.59h5.46a6.15,6.15,0,0,1,1.41.15,3.78,3.78,0,0,1,1.19.5,2.51,2.51,0,0,1,.83.87,2.57,2.57,0,0,1,.31,1.3,3.25,3.25,0,0,1-.21,1.21,2.47,2.47,0,0,1-.62.91,3.67,3.67,0,0,1-.9.62,6.7,6.7,0,0,1-1.16.45q.88,1.16,1.45,2l1.42,1.93a3.94,3.94,0,0,0,.66.74,3.57,3.57,0,0,0,.59.39,2,2,0,0,0,.54.17,4.05,4.05,0,0,0,.54.07Zm-4.39-8.82a2.16,2.16,0,0,0-2.36-2.33H69.09v5.07h1.09a2.58,2.58,0,0,0,2.69-2.74Z" style="fill:#e71b28"/><path d="M91,25.69h-.63a4.28,4.28,0,0,0-.73-1.41,1.82,1.82,0,0,0-1.06-.83l-.61,0-.81,0h-2v4.75h1.36a2.81,2.81,0,0,0,1-.13,1.46,1.46,0,0,0,.59-.4A1.72,1.72,0,0,0,88.4,27a3.43,3.43,0,0,0,.18-.83h.63v4.65h-.63a3.6,3.6,0,0,0-.17-.83,2.14,2.14,0,0,0-.32-.68,1.26,1.26,0,0,0-.63-.42,3.34,3.34,0,0,0-.92-.11H85.19V32.9a1.08,1.08,0,0,0,.11.49.79.79,0,0,0,.38.35,3,3,0,0,0,.54.14,4.58,4.58,0,0,0,.63.09v.59H81.73V34l.67-.05a2,2,0,0,0,.54-.1.72.72,0,0,0,.36-.32,1.1,1.1,0,0,0,.11-.51V24.45a1.2,1.2,0,0,0-.09-.49.71.71,0,0,0-.38-.35,2.92,2.92,0,0,0-.6-.19,4.92,4.92,0,0,0-.6-.1v-.59H91Z" style="fill:#e71b28"/><path d="M104,23.32a4.69,4.69,0,0,0-.69.1,2.18,2.18,0,0,0-.73.28,1.17,1.17,0,0,0-.39.79,8.37,8.37,0,0,0-.11,1.47V31.1a3.43,3.43,0,0,1-.41,1.71A3.61,3.61,0,0,1,100.63,34a4.53,4.53,0,0,1-1.39.65,5.4,5.4,0,0,1-1.4.2,6,6,0,0,1-1.9-.28,4.31,4.31,0,0,1-1.4-.76,3.17,3.17,0,0,1-.84-1.09,3,3,0,0,1-.28-1.28v-7a1.1,1.1,0,0,0-.1-.49.92.92,0,0,0-.39-.36,2,2,0,0,0-.53-.19,4.41,4.41,0,0,0-.53-.09v-.59h4.93v.59a4,4,0,0,0-.59.08,4.27,4.27,0,0,0-.52.12.6.6,0,0,0-.38.33,1.3,1.3,0,0,0-.1.51v6.53a5.05,5.05,0,0,0,.1,1,2.63,2.63,0,0,0,.41,1,2.47,2.47,0,0,0,.89.75,3.35,3.35,0,0,0,1.53.29,3.61,3.61,0,0,0,1.54-.29,2.56,2.56,0,0,0,1-.77,2.85,2.85,0,0,0,.48-.94,3.52,3.52,0,0,0,.14-1V26.06a7,7,0,0,0-.13-1.51,1.29,1.29,0,0,0-.39-.77,2.29,2.29,0,0,0-.8-.32,5.3,5.3,0,0,0-.77-.13v-.59H104Z" style="fill:#e71b28"/><path d="M117.9,23.32a3.9,3.9,0,0,0-.72.13,2.56,2.56,0,0,0-.69.26,1.17,1.17,0,0,0-.4.8A8.89,8.89,0,0,0,116,26v8.67h-.72L108.08,25v6.1a7.32,7.32,0,0,0,.13,1.58,1.46,1.46,0,0,0,.4.78,1.94,1.94,0,0,0,.79.34,4.88,4.88,0,0,0,.79.17v.59h-4.85V34a4.65,4.65,0,0,0,.76-.16,2,2,0,0,0,.67-.26,1.21,1.21,0,0,0,.4-.71,8.44,8.44,0,0,0,.11-1.64V25.36a2.31,2.31,0,0,0-.13-.77,1.45,1.45,0,0,0-.36-.59,2.52,2.52,0,0,0-.81-.47,2.93,2.93,0,0,0-.83-.21v-.59h3.38l6.65,9V26.12a7.19,7.19,0,0,0-.13-1.59,1.25,1.25,0,0,0-.38-.74,2.79,2.79,0,0,0-.76-.31,4.26,4.26,0,0,0-.8-.17v-.59h4.81Z" style="fill:#e71b28"/><path d="M130.19,28.72a5.69,5.69,0,0,1-.57,2.62,5.35,5.35,0,0,1-1.48,1.82,6.43,6.43,0,0,1-2.06,1.06,8,8,0,0,1-2.36.35h-4.9V34a5.63,5.63,0,0,0,.63,0,2,2,0,0,0,.51-.1.72.72,0,0,0,.36-.32,1.1,1.1,0,0,0,.11-.51V24.45a1.28,1.28,0,0,0-.1-.51.72.72,0,0,0-.38-.36,2.27,2.27,0,0,0-.56-.18,4.79,4.79,0,0,0-.52-.08v-.59h5.17a6.84,6.84,0,0,1,2.1.33,6.24,6.24,0,0,1,1.8.89,5.12,5.12,0,0,1,1.63,1.94A6.33,6.33,0,0,1,130.19,28.72Zm-2,0a6.87,6.87,0,0,0-.32-2.15,5,5,0,0,0-.93-1.68,4.06,4.06,0,0,0-1.41-1.07,4.33,4.33,0,0,0-1.86-.39h-.77l-.64,0v9.09a1.16,1.16,0,0,0,.44,1.05,2.5,2.5,0,0,0,1.36.29,4.28,4.28,0,0,0,1.85-.38,3.35,3.35,0,0,0,1.29-1,4.66,4.66,0,0,0,.75-1.62A8.51,8.51,0,0,0,128.15,28.71Z" style="fill:#e71b28"/></g></g></svg>