<svg xmlns="http://www.w3.org/2000/svg" viewBox="0 0 52.6 54.6"><title>logo__hello-alice</title><g id="Layer_2" data-name="Layer 2"><g id="Layer_1-2" data-name="Layer 1"><path d="M28.4,52.4h0V40.5h2.2a13.72,13.72,0,0,0,4-.5,10.31,10.31,0,0,0,3-1.4,6.74,6.74,0,0,0,1.9-2.2,6.3,6.3,0,0,0,.7-3h0a5.19,5.19,0,0,0-.5-2.4,7.07,7.07,0,0,0-1.2-1.8,5.94,5.94,0,0,0-1.8-1.3,10.2,10.2,0,0,0-2.2-.9l-1-.3.9-.4a10.93,10.93,0,0,0,1.5-.8,5.26,5.26,0,0,0,1.4-1.2,5.93,5.93,0,0,0,1.2-3.9v-.1a6.2,6.2,0,0,0-1.6-4.1,6.83,6.83,0,0,0-2.8-1.7,13.36,13.36,0,0,0-4-.6H28.2V2.2h.1A25.09,25.09,0,0,1,50.5,17.8l2-.8a27.18,27.18,0,1,0,.1,20.6l-2-.8A25.09,25.09,0,0,1,28.4,52.4Zm7.4-23.1a4.32,4.32,0,0,1,2,3.8v.1a4.65,4.65,0,0,1-1.9,3.9,8.39,8.39,0,0,1-5.1,1.4H21.2V28.1h9A9.82,9.82,0,0,1,35.8,29.3ZM29.9,15.9a7.79,7.79,0,0,1,4.7,1.3,4.27,4.27,0,0,1,1.7,3.5v.1a4.3,4.3,0,0,1-1.9,3.9A8.09,8.09,0,0,1,29.6,26H21.2V15.9ZM26.2,52.4a25.12,25.12,0,0,1,0-50.2V13.8H18.9V40.4h7.3Z" style="fill:#252525"/></g></g></svg>