<svg xmlns="http://www.w3.org/2000/svg" viewBox="0 0 62.36 86.96"><title>lady</title><g id="Layer_2" data-name="Layer 2"><g id="Our_Value" data-name="Our Value"><path d="M44.62,32.39l.09-1,1,.24h0c.55,0,1.51-.74,2.11-2.31.67-1.73.4-3.19-.07-3.4a2.08,2.08,0,0,0-1.45,1l-1.65,2.24v-6c0-3.95-4.91-4.38-12.41-4.6-8.09-.23-11.21-1.88-14-5.4C16.2,18,17.1,26.11,17.11,26.2l.4,3.41-2-2.77c-.51-.7-1-1-1.33-1-.6.23-.86,1.69-.2,3.43s1.58,2.33,2,2.33l1-.23.17,1c.67,7.45,8.13,14.08,13.53,14.08h.39C37.17,46.47,44,39.37,44.62,32.39Z" style="fill:none"/><path d="M38.28,49.84a7.94,7.94,0,0,1-.39-3.77,12.74,12.74,0,0,1-6.8,2.24H30.7a12.23,12.23,0,0,1-6.16-1.89,7.69,7.69,0,0,1-.45,3.43h0a7.75,7.75,0,0,1-2.46,3.34L27,70H35.2l5.47-16.9A7.75,7.75,0,0,1,38.28,49.84Z" style="fill:none"/><path d="M35.38,70,40.76,53.2l-.09-.08L35.2,70Z" style="fill:none"/><path d="M22.19,44.74a19.36,19.36,0,0,1-6.75-11.37,5.25,5.25,0,0,1-3.23-3.44c-1-2.57-.54-5,1.05-5.74a2.34,2.34,0,0,1,1.85,0c-.16-3.32-.1-9.6,2.25-13.31l.74-1.16.79,1.13c2.41,3.45,4.52,5.56,13.42,5.82,6.66.19,14.2.4,14.2,6.43v1.16a2.34,2.34,0,0,1,2-.1c1.58.69,2,3.16,1,5.74a5.26,5.26,0,0,1-3.22,3.44,19,19,0,0,1-6.07,10.87,7.49,7.49,0,0,0-.58,3.57c3.11-.18,12.8-1.16,14.82-6.57,1.72-4.59,3.09-20.38-3.86-30.39-4.15-6-10.56-9-19-9h-.53c-8.56,0-15,3.08-19.25,9.15-7,10.09-5.74,25.72-4,30.24h0c2,5.48,11.91,6.42,14.91,6.57A5.48,5.48,0,0,0,22.19,44.74Z" style="fill:none"/><polygon points="30.95 82.19 27.63 71.85 27.53 71.85 31.16 83.2 34.79 71.85 34.61 71.85 31.61 81.11 34.61 71.85 27.63 71.85 30.95 82.19" style="fill:none"/><path d="M21.58,53.24,26.94,70H27L21.63,53.19Z" style="fill:none"/><polygon points="19.2 66.36 27.58 78.06 20.31 55.32 18.3 58.01 22.04 62 19.2 66.36" style="fill:none"/><path d="M48.76,57.16l-.86-.34c-1.21-.48-2.4-1-3.52-1.47l2.09,2.8L42.66,62.2l2.74,4.21L32.9,83.85h0l-.41,1.29H59.19c.46-1.28,1.52-5.14,1.31-12.75C60.26,63.49,55.83,60,48.76,57.16Z" style="fill:none"/><polygon points="40.33 61.99 44.08 58.01 42.02 55.27 34.69 78.19 43.17 66.36 40.33 61.99" style="fill:none"/><path d="M17,66.42l2.74-4.21L15.9,58.15,18,55.35c-1.12.52-2.31,1-3.52,1.47l-.87.34C6.53,60,2.1,63.49,1.87,72.39h0c-.2,7.6.86,11.45,1.32,12.74H29.84l-.44-1.38Z" style="fill:none"/><path d="M24.09,49.85h0a7.69,7.69,0,0,0,.45-3.43,12.23,12.23,0,0,0,6.16,1.89h.39a12.74,12.74,0,0,0,6.8-2.24,7.94,7.94,0,0,0,.39,3.77,7.75,7.75,0,0,0,2.39,3.27l.63-2a5.84,5.84,0,0,1-1.1-1.54c3.79-.25,13.7-1.49,16-7.75,1.87-5,3.36-21.37-4.07-32.08C47.65,3.29,40.74,0,31.61,0h-.53C21.88,0,14.9,3.34,10.32,9.94c-7.49,10.8-6.1,27-4.26,31.93,2.35,6.3,12.37,7.52,16.1,7.75A5.87,5.87,0,0,1,21,51.23l.63,2A7.75,7.75,0,0,0,24.09,49.85Zm7-3.37H30.7c-5.4,0-12.85-6.63-13.53-14.08l-.17-1-1,.23c-.47,0-1.44-.74-2-2.33s-.4-3.19.2-3.43c.29,0,.82.31,1.33,1l2,2.77-.4-3.41c0-.09-.91-8.21,1.16-13.07,2.77,3.52,5.9,5.17,14,5.4,7.5.21,12.41.65,12.41,4.6v6l1.65-2.24a2.08,2.08,0,0,1,1.45-1c.47.2.74,1.66.07,3.4-.6,1.57-1.57,2.31-2.11,2.31h0l-1-.24-.09,1C44,39.37,37.17,46.47,31.09,46.47ZM7.78,41.22h0c-1.69-4.52-3-20.15,4-30.24C16,4.91,22.52,1.83,31.08,1.83h.53c8.49,0,14.9,3,19,9,6.95,10,5.58,25.79,3.86,30.39-2,5.41-11.7,6.4-14.82,6.57a7.49,7.49,0,0,1,.58-3.57,19,19,0,0,0,6.07-10.87,5.26,5.26,0,0,0,3.22-3.44c1-2.58.54-5-1-5.74a2.34,2.34,0,0,0-2,.1V23.13c0-6-7.54-6.25-14.2-6.43-8.9-.26-11-2.37-13.42-5.82L18.1,9.75l-.74,1.16c-2.35,3.7-2.41,10-2.25,13.31a2.34,2.34,0,0,0-1.85,0c-1.59.7-2,3.17-1.05,5.74a5.25,5.25,0,0,0,3.23,3.44,19.36,19.36,0,0,0,6.75,11.37,5.48,5.48,0,0,1,.5,3.06C19.68,47.64,9.83,46.7,7.78,41.22Z" style="fill:#fff"/><path d="M62.34,72.34h0C62.06,61.89,56,58,49.44,55.45l-.87-.34c-3-1.18-5.65-2.26-7.27-4l-.63,2,.09.08L35.38,70H35.2l-.59,1.84h.18L31.16,83.2,27.53,71.85h.1L27,70h-.09L21.58,53.24l.05,0-.63-2c-1.62,1.65-4.25,2.71-7.21,3.88l-.87.34C6.39,58,.3,61.89,0,72.34c-.27,10.14,1.64,14,1.72,14.13L2,87H60.36l.26-.5C60.7,86.31,62.61,82.48,62.34,72.34Zm-42-17,7.27,22.74L19.2,66.36,22,62,18.3,58ZM3.19,85.13C2.73,83.84,1.67,80,1.87,72.39h0C2.1,63.49,6.53,60,13.61,57.16l.87-.34c1.21-.48,2.4-1,3.52-1.47l-2.09,2.8,3.81,4.06L17,66.42,29.4,83.75l.44,1.38ZM42,55.27,44.08,58l-3.75,4,2.84,4.36L34.69,78.19ZM59.19,85.13H32.48l.41-1.29h0L45.4,66.41,42.66,62.2l3.81-4.06-2.09-2.8c1.12.52,2.31,1,3.52,1.47l.86.34C55.83,60,60.26,63.49,60.5,72.38,60.7,80,59.64,83.85,59.19,85.13Z" style="fill:#eb1c24"/><polygon points="27.63 71.85 34.61 71.85 35.2 70.02 27.04 70.02 27.63 71.85" style="fill:#fff"/></g></g></svg>