 

<svg xmlns="http://www.w3.org/2000/svg" width="139" height="54" xmlns:xlink="http://www.w3.org/1999/xlink" version="1.1" x="0px" y="0px" viewBox="0 0 359.16 145.67" style="enable-background:new 0 0 359.16 145.67;" xml:space="preserve">
<style type="text/css">
	.st0{fill:#002554;}
</style>
<g>
	<path class="st0" d="M86.13,133.01V87.56c0-6.95-1.9-12.52-5.71-16.72c-3.81-4.2-9.05-6.3-15.74-6.3c-6.69,0-12.07,2.13-16.13,6.39   c-4.07,4.26-6.1,9.81-6.1,16.63v45.45c0,1.18-0.43,2.13-1.28,2.85c-0.86,0.72-1.87,1.08-3.05,1.08H18.25   c-1.18,0-2.16-0.39-2.95-1.18c-0.79-0.79-1.18-1.77-1.18-2.95V13.91c0-1.18,0.39-2.16,1.18-2.95c0.79-0.79,1.77-1.18,2.95-1.18   h19.87c1.18,0,2.19,0.36,3.05,1.08c0.85,0.72,1.28,1.67,1.28,2.85v34.02c0,0,11.11-9.36,31.09-9.36c12.46,0,22.43,3.94,29.91,11.81   s11.22,17.77,11.22,29.71v53.12c0,1.18-0.43,2.13-1.28,2.85c-0.85,0.72-1.87,1.08-3.05,1.08H90.46c-1.18,0-2.2-0.36-3.05-1.08   C86.55,135.15,86.13,134.2,86.13,133.01z"/>
	<path class="st0" d="M241.95,133.01V87.56c0-6.95-1.9-12.52-5.71-16.72c-3.81-4.2-9.05-6.3-15.74-6.3   c-6.69,0-12.07,2.13-16.13,6.39c-4.07,4.26-6.1,9.81-6.1,16.63v45.45c0,1.18-0.43,2.13-1.28,2.85c-0.86,0.72-1.87,1.08-3.05,1.08   h-19.87c-1.18,0-2.16-0.39-2.95-1.18c-0.79-0.79-1.18-1.77-1.18-2.95V45.2c0-1.18,0.39-2.16,1.18-2.95   c0.79-0.79,1.77-1.18,2.95-1.18h19.87c1.18,0,2.19,0.36,3.05,1.08c0.85,0.72,1.28,1.67,1.28,2.85v2.73c0,0,11.11-9.36,31.09-9.36   c12.46,0,22.43,3.94,29.91,11.81s11.22,17.77,11.22,29.71v53.12c0,1.18-0.43,2.13-1.28,2.85c-0.85,0.72-1.87,1.08-3.05,1.08h-19.87   c-1.18,0-2.2-0.36-3.05-1.08C242.37,135.15,241.95,134.2,241.95,133.01z"/>
	<path class="st0" d="M152.34,136.95h-19.87c-1.18,0-2.2-0.42-3.05-1.28c-0.85-0.85-1.28-1.87-1.28-3.05V45.46   c0-1.18,0.42-2.19,1.28-3.05c0.85-0.85,1.87-1.28,3.05-1.28h19.87c1.18,0,2.16,0.43,2.95,1.28c0.79,0.85,1.18,1.87,1.18,3.05v87.16   c0,1.18-0.39,2.2-1.18,3.05C154.5,136.53,153.52,136.95,152.34,136.95z"/>
	<path class="st0" d="M282.65,108.42V64.94V41.13V14.1c0-1.31,0.42-2.36,1.28-3.15c0.85-0.79,1.87-1.18,3.05-1.18h20.07   c1.05,0,2,0.39,2.85,1.18c0.85,0.79,1.28,1.84,1.28,3.15v27.03h17.96c1.18,0,2.23,0.43,3.15,1.28c0.92,0.85,1.38,1.87,1.38,3.05   v15.15c0,1.05-0.46,2.04-1.38,2.95c-0.92,0.92-1.97,1.38-3.15,1.38h-17.96v36.79c0,4.2,0.98,7.08,2.95,8.66   c1.97,1.57,4.2,2.36,6.69,2.36c2.62,0,5.51-0.92,8.66-2.75c3.54-2.23,6.23-1.97,8.07,0.79l6.89,11.02   c1.57,2.49,1.38,4.85-0.59,7.08c-6.56,6.82-16,10.23-28.33,10.23c-9.18,0-16.96-2.56-23.32-7.67   C285.83,126.33,282.65,118.65,282.65,108.42z"/>
	<g>
		<g>
			<g>
				<path class="st0" d="M341.85,47.1v2.27h-0.69v-4.81h1.68c0.44,0,0.71,0.1,0.93,0.28c0.29,0.23,0.47,0.59,0.47,0.99      c0,0.4-0.19,0.75-0.47,0.99c-0.15,0.12-0.32,0.21-0.56,0.25l1.72,2.29h-0.83l-1.71-2.27H341.85z M342.81,46.45      c0.31,0,0.47-0.07,0.58-0.18c0.11-0.11,0.18-0.27,0.18-0.44c0-0.17-0.07-0.33-0.18-0.44c-0.11-0.11-0.27-0.18-0.58-0.18h-0.96      v1.24H342.81z"/>
			</g>
		</g>
		<g>
			<path class="st0" d="M337.73,46.96c0-2.85,2.32-5.17,5.17-5.17c2.85,0,5.17,2.32,5.17,5.17c0,2.85-2.32,5.17-5.17,5.17     C340.05,52.13,337.73,49.81,337.73,46.96z M347.55,46.96c0-2.56-2.08-4.64-4.64-4.64c-2.56,0-4.64,2.08-4.64,4.64     s2.08,4.64,4.64,4.64C345.46,51.61,347.55,49.53,347.55,46.96z"/>
		</g>
	</g>
</g>
</svg>

