<?xml version="1.0" encoding="utf-8"?>
<svg viewBox="146.257 168.268 122.543 38.018" xmlns="http://www.w3.org/2000/svg" xmlns:xlink="http://www.w3.org/1999/xlink">
  <defs>
    <linearGradient id="linear-gradient" x1="-209.89" y1="661.08" x2="-201.27" y2="661.08" gradientTransform="translate(846.03 -93.82) rotate(64.6)" gradientUnits="userSpaceOnUse">
      <stop offset="0.18" stop-color="#e50f26"/>
      <stop offset="0.47" stop-color="#b92130"/>
      <stop offset="0.62" stop-color="#a72a39"/>
      <stop offset="0.88" stop-color="#813c4c"/>
    </linearGradient>
    <linearGradient id="linear-gradient-2" x1="-212.72" y1="677.43" x2="-208.41" y2="671.42" gradientTransform="translate(846.03 -93.82) rotate(64.6)" gradientUnits="userSpaceOnUse">
      <stop offset="0.48" stop-color="#e50f26"/>
      <stop offset="0.68" stop-color="#b82231"/>
      <stop offset="0.8" stop-color="#953242"/>
      <stop offset="0.83" stop-color="#8b3747"/>
      <stop offset="0.88" stop-color="#813c4c"/>
    </linearGradient>
    <linearGradient id="linear-gradient-3" x1="-193.82" y1="665.76" x2="-199.75" y2="669.19" gradientTransform="translate(846.03 -93.82) rotate(64.6)" gradientUnits="userSpaceOnUse">
      <stop offset="0.2" stop-color="#e50f26"/>
      <stop offset="0.57" stop-color="#b92130"/>
      <stop offset="0.65" stop-color="#a72a39"/>
      <stop offset="0.79" stop-color="#813c4c"/>
    </linearGradient>
    <linearGradient id="linear-gradient-4" x1="-185.76" y1="687.29" x2="-188.87" y2="685.24" gradientTransform="translate(846.03 -93.82) rotate(64.6)" gradientUnits="userSpaceOnUse">
      <stop offset="0.18" stop-color="#e50f26"/>
      <stop offset="0.47" stop-color="#b92130"/>
      <stop offset="0.57" stop-color="#a72939"/>
      <stop offset="0.79" stop-color="#783e50"/>
      <stop offset="0.87" stop-color="#654759"/>
    </linearGradient>
    <linearGradient id="linear-gradient-5" x1="-173.76" y1="669.06" x2="-177.87" y2="664.95" gradientTransform="translate(846.03 -93.82) rotate(64.6)" gradientUnits="userSpaceOnUse">
      <stop offset="0" stop-color="#e50f26"/>
      <stop offset="0.21" stop-color="#b92130"/>
      <stop offset="0.35" stop-color="#a72a39"/>
      <stop offset="0.59" stop-color="#813c4c"/>
    </linearGradient>
    <linearGradient id="linear-gradient-6" x1="-185.82" y1="676.22" x2="-190.42" y2="670.48" gradientTransform="translate(846.03 -93.82) rotate(64.6)" gradientUnits="userSpaceOnUse">
      <stop offset="0" stop-color="#7c4a5f"/>
      <stop offset="0.37" stop-color="#654759"/>
    </linearGradient>
    <linearGradient id="linear-gradient-7" x1="-201.2" y1="681.98" x2="-189.21" y2="681.98" gradientTransform="translate(846.03 -93.82) rotate(64.6)" gradientUnits="userSpaceOnUse">
      <stop offset="0.11" stop-color="#4d4d63"/>
      <stop offset="0.87" stop-color="#654759"/>
    </linearGradient>
    <linearGradient id="linear-gradient-8" x1="-203.45" y1="677.47" x2="-202.72" y2="680.84" gradientTransform="translate(846.03 -93.82) rotate(64.6)" gradientUnits="userSpaceOnUse">
      <stop offset="0.11" stop-color="#e50f26"/>
      <stop offset="0.64" stop-color="#704255"/>
      <stop offset="0.87" stop-color="#4d4d63"/>
    </linearGradient>
    <linearGradient id="linear-gradient-9" x1="-192.07" y1="659.49" x2="-186.09" y2="666.25" gradientTransform="translate(846.03 -93.82) rotate(64.6)" gradientUnits="userSpaceOnUse">
      <stop offset="0.23" stop-color="#e50f26"/>
      <stop offset="0.52" stop-color="#b92130"/>
      <stop offset="0.62" stop-color="#a72a39"/>
      <stop offset="0.78" stop-color="#813c4c"/>
    </linearGradient>
    <linearGradient id="linear-gradient-10" x1="-194.35" y1="684.21" x2="-194.81" y2="692.49" gradientTransform="translate(846.03 -93.82) rotate(64.6)" gradientUnits="userSpaceOnUse">
      <stop offset="0.08" stop-color="#4d4d63"/>
      <stop offset="0.74" stop-color="#e50f26"/>
      <stop offset="0.8" stop-color="#e50f26"/>
    </linearGradient>
    <linearGradient id="linear-gradient-11" x1="-182.78" y1="691.41" x2="-188.74" y2="686.57" gradientTransform="translate(846.03 -93.82) rotate(64.6)" gradientUnits="userSpaceOnUse">
      <stop offset="0.04" stop-color="#e70f1a"/>
      <stop offset="0.46" stop-color="#813c4c"/>
      <stop offset="0.78" stop-color="#4d4d63"/>
    </linearGradient>
    <linearGradient id="linear-gradient-12" x1="-135.58" y1="793.42" x2="-139.63" y2="790.75" gradientTransform="matrix(0.3, 0.95, -0.95, 0.3, 939.61, -73.93)" gradientUnits="userSpaceOnUse">
      <stop offset="0.29" stop-color="#7a3d50"/>
      <stop offset="0.34" stop-color="#6d4355"/>
      <stop offset="0.65" stop-color="#e50f26"/>
    </linearGradient>
    <linearGradient id="linear-gradient-13" x1="-188.81" y1="685.63" x2="-188.81" y2="685.63" xlink:href="#linear-gradient-4"/>
    <linearGradient id="linear-gradient-14" x1="-189.22" y1="683.31" x2="-191.46" y2="684.04" gradientTransform="translate(846.03 -93.82) rotate(64.6)" gradientUnits="userSpaceOnUse">
      <stop offset="0.07" stop-color="#e50f26"/>
      <stop offset="0.61" stop-color="#744153"/>
      <stop offset="0.87" stop-color="#654759"/>
    </linearGradient>
    <linearGradient id="linear-gradient-15" x1="-197.83" y1="679.57" x2="-193.59" y2="679.57" gradientTransform="translate(846.03 -93.82) rotate(64.6)" gradientUnits="userSpaceOnUse">
      <stop offset="0.3" stop-color="#e50f26"/>
      <stop offset="0.61" stop-color="#b92130"/>
      <stop offset="0.68" stop-color="#a72939"/>
      <stop offset="0.82" stop-color="#783e50"/>
      <stop offset="0.87" stop-color="#654759"/>
    </linearGradient>
    <linearGradient id="linear-gradient-16" x1="-207.87" y1="684.47" x2="-198.37" y2="684.47" gradientTransform="translate(846.03 -93.82) rotate(64.6)" gradientUnits="userSpaceOnUse">
      <stop offset="0.01" stop-color="#654759"/>
      <stop offset="0.49" stop-color="#4d4d63"/>
      <stop offset="0.8" stop-color="#4e4d63"/>
    </linearGradient>
    <linearGradient id="linear-gradient-17" x1="-196.42" y1="684.65" x2="-188.92" y2="684.65" xlink:href="#linear-gradient-15"/>
    <linearGradient id="linear-gradient-18" x1="-246.7" y1="537.72" x2="-243.2" y2="537.72" gradientTransform="translate(723.9 -100.51) rotate(54.21)" xlink:href="#linear-gradient-15"/>
    <linearGradient id="linear-gradient-19" x1="-205.54" y1="679.31" x2="-201.13" y2="679.31" xlink:href="#linear-gradient-15"/>
    <linearGradient id="linear-gradient-20" x1="-201.57" y1="680.18" x2="-196.73" y2="680.18" gradientTransform="translate(846.03 -93.82) rotate(64.6)" gradientUnits="userSpaceOnUse">
      <stop offset="0.31" stop-color="#b92130"/>
      <stop offset="0.4" stop-color="#b42332"/>
      <stop offset="0.59" stop-color="#863849"/>
      <stop offset="0.72" stop-color="#654759"/>
    </linearGradient>
    <linearGradient id="linear-gradient-21" x1="1337.25" y1="37.73" x2="1338.77" y2="37.73" gradientTransform="translate(612.48 1283.23) rotate(-112.06)" gradientUnits="userSpaceOnUse">
      <stop offset="0.3" stop-color="#e50f26"/>
      <stop offset="0.57" stop-color="#b92130"/>
      <stop offset="0.69" stop-color="#a72939"/>
      <stop offset="0.91" stop-color="#783e50"/>
      <stop offset="1" stop-color="#654759"/>
    </linearGradient>
  </defs>
  <g id="Layer_2" data-name="Layer 2" transform="matrix(1.019786, 0, 0, 1.019786, 91.234581, 168.267838)" style="">
    <g id="Menu_Bar" data-name="Menu Bar">
      <polygon points="170.36 4.15 159 0 152.35 6.73 170.36 4.15" style="fill:url(#linear-gradient)"/>
      <polygon points="149.92 7.89 147.24 0.66 146.26 1.13 145.73 9.73 149.92 7.89" style="fill:url(#linear-gradient-2)"/>
      <polygon points="156.69 12.42 152.27 10.95 147.25 11.69 150.94 14.11 156.69 12.42" style="fill:#e70f1a"/>
      <polygon points="161.68 16.32 159.69 7.12 153.51 17.66 153.84 19.59 161.68 16.32" style="fill:url(#linear-gradient-3)"/>
      <path d="M145.68,29.65s.37,1.1,3.21,1.18l-6.19.08.73-2.16,2.29.43Z" style="fill:url(#linear-gradient-4)"/>
      <polygon points="174.12 32.48 164.02 31.3 162.86 32.01 165.67 34.76 167.05 36.13 174.12 32.48" style="fill:url(#linear-gradient-5)"/>
      <polygon points="161.22 26.97 151.88 24.25 150.53 29.26 161.36 27.6 161.22 26.97" style="fill:url(#linear-gradient-6)"/>
      <path d="M149.22,15.37l-3.5,13.81-2.7-.24.63-1.39.12-1.84-1.2-.33L145,19.17l-2.82-.75a.86.86,0,0,0,.84-1c-.08-.62,4.45-1.82,4.45-1.82l.7,1,.88-1.76Z" style="fill:url(#linear-gradient-7)"/>
      <polygon points="156.95 17.67 153.26 21.51 153.99 29.96 156.89 26.34 156.95 17.67" style="fill:#e70f1a"/>
      <polygon points="147.47 15.63 143.58 12.15 143.02 17.42 147.47 15.63" style="fill:url(#linear-gradient-8)"/>
      <polygon points="173.9 19.46 159.93 16.1 161.26 22.03 173.9 19.46" style="fill:url(#linear-gradient-9)"/>
      <polygon points="160.78 32.17 153.62 36.09 158.66 37.28 166.94 33.69 160.78 32.17" style="fill:#e70f1a"/>
      <path d="M135.6,27.73c.33-2.35,2-4,2.82-6.07l.46-1.15,2.71-2.11.72,0,2.68.75-1.63,5,1-.12.7,1.16-1.71,4.24-.39,1.38-4.55,2.56-2.22.36a40.68,40.68,0,0,1,0-4.71C136.12,28.79,135.56,28,135.6,27.73Z" style="fill:url(#linear-gradient-10)"/>
      <path d="M137.31,34.48l-1,0-.15-.73,1.22-2.67-.37-.57a4.1,4.1,0,0,1,.21-1.25c.17-.25.28-.19.62-.14.53.08.62,0,.63.57s0,.84,0,1.26.16,1.63-.06,1.9l1.36-1.64,2.83-1,3.14.65,3.17,0,1.71,4.9a6,6,0,0,0,.52.89c-1.45-.42-3.14-1.23-4.65-1.27A57.55,57.55,0,0,1,137.31,34.48Z" style="fill:url(#linear-gradient-11)"/>
      <polygon points="144.92 35.16 143.62 32.68 142.92 31.98 142.23 32.7 141.54 33.68 142.81 34.98 144.92 35.16" style="fill:url(#linear-gradient-12)"/>
      <path d="M145.68,29.65" style="fill:url(#linear-gradient-13)"/>
      <path d="M147.12,24s2.09,2.21,1.94,2.51-3.5,3.45-3.5,3.45l.48-6Z" style="fill:url(#linear-gradient-14)"/>
      <polygon points="151.14 21.77 145.25 19.87 146.62 22.13 151.14 21.77" style="fill:url(#linear-gradient-15)"/>
      <path d="M147.14,15.12l-3.14-3s-.37-.15-.52.17c0,0,0,.33,0,.43s0,1.1,0,1.1-.19.73-.06,1-.14,1-.14,1.22c0,1-.21,2.54-1.65,2-.24-.09-.46-.41-.69-.54a14.79,14.79,0,0,0-2.78-1L136.53,16l-3.25-1.09-.37-.1-.22,0,6.19,5.78,2.71-2.11,2.94,1.21,2.94-4Z" style="fill:url(#linear-gradient-16)"/>
      <polygon points="145.33 26.02 144.22 24.61 145.19 21.46 145.73 21.35 145.85 23.01 146.41 25.13 144.7 29.07 145.41 29.06 145.24 29.74 143.9 29.75 144.99 26.85 145.33 26.02" style="fill:url(#linear-gradient-17)"/>
      <polygon points="144.17 15.84 145.19 16.94 145.77 16.1 143.47 13.86 144.17 15.84" style="fill:url(#linear-gradient-18)"/>
      <path d="M147.28,15.25l-3.34-3.11c-.39-.36-.61.55-.58.81s.42.65.7.94l1.65,1.66Z" style="fill:url(#linear-gradient-19)"/>
      <path d="M144.39,20.76a1.22,1.22,0,0,1,0-.13,2,2,0,0,1,.13-.62c.33-1,.61-2.08,1-3.06a6,6,0,0,1,1-1.74,1.7,1.7,0,0,1,1.25-.48,10,10,0,0,0-.85,1.62c-.3.56-.6,1.12-.87,1.7a17.66,17.66,0,0,1-1.47,3.34A1.31,1.31,0,0,1,144.39,20.76Z" style="fill:url(#linear-gradient-20)"/>
      <polygon points="144.29 29.4 145.44 29.61 145.56 28.93 144.87 28.97 144.52 28.34 144.29 29.4" style="fill:url(#linear-gradient-21)"/>
      <path d="M 61.355 29.13 C 61.609 29.379 61.813 29.674 61.955 30 C 62.082 30.373 62.143 30.766 62.135 31.16 C 62.167 32.171 61.731 33.141 60.955 33.79 C 60.153 34.471 59.126 34.828 58.075 34.79 C 57.538 34.787 57.006 34.702 56.495 34.54 C 56.007 34.418 55.537 34.237 55.095 34 L 54.735 34.61 L 54.075 34.61 L 53.955 30.52 L 54.635 30.52 C 54.761 30.982 54.925 31.434 55.125 31.87 C 55.313 32.279 55.559 32.66 55.855 33 C 56.136 33.321 56.475 33.586 56.855 33.78 C 57.276 33.98 57.738 34.08 58.205 34.07 C 58.544 34.077 58.882 34.026 59.205 33.92 C 59.485 33.843 59.743 33.699 59.955 33.5 C 60.134 33.315 60.271 33.093 60.355 32.85 C 60.431 32.574 60.462 32.286 60.445 32 C 60.444 31.53 60.305 31.071 60.045 30.68 C 59.755 30.253 59.339 29.928 58.855 29.75 L 57.615 29.27 C 57.145 29.1 56.745 28.93 56.405 28.78 C 55.792 28.522 55.255 28.112 54.845 27.59 C 54.456 27.035 54.263 26.367 54.295 25.69 C 54.292 25.254 54.388 24.824 54.575 24.43 C 54.767 24.049 55.032 23.71 55.355 23.43 C 55.689 23.134 56.075 22.903 56.495 22.75 C 56.936 22.584 57.403 22.499 57.875 22.5 C 58.373 22.492 58.868 22.576 59.335 22.75 C 59.745 22.906 60.14 23.1 60.515 23.33 L 60.855 22.76 L 61.525 22.76 L 61.595 26.69 L 60.955 26.69 C 60.835 26.243 60.698 25.813 60.545 25.4 C 60.398 25 60.196 24.623 59.945 24.28 C 59.711 23.963 59.41 23.7 59.065 23.51 C 58.673 23.306 58.236 23.206 57.795 23.22 C 57.296 23.209 56.812 23.392 56.445 23.73 C 56.085 24.041 55.88 24.495 55.885 24.97 C 55.868 25.421 55.994 25.865 56.245 26.24 C 56.504 26.596 56.847 26.881 57.245 27.07 C 57.655 27.26 58.045 27.43 58.445 27.57 C 58.845 27.71 59.215 27.86 59.585 28.02 C 59.928 28.163 60.262 28.326 60.585 28.51 C 60.868 28.681 61.127 28.889 61.355 29.13 Z" style="fill:#e71b28"/>
      <path d="M 75.045 34.56 L 70.135 34.56 L 70.135 34 L 70.715 33.95 C 70.892 33.943 71.067 33.909 71.235 33.85 C 71.389 33.796 71.519 33.69 71.605 33.55 C 71.69 33.387 71.731 33.204 71.725 33.02 L 71.725 28.77 L 66.155 28.77 L 66.155 32.89 C 66.151 33.059 66.185 33.226 66.255 33.38 C 66.34 33.535 66.474 33.657 66.635 33.73 C 66.794 33.801 66.962 33.851 67.135 33.88 C 67.322 33.921 67.513 33.948 67.705 33.96 L 67.705 34.55 L 62.795 34.55 L 62.795 34 L 63.375 33.95 C 63.552 33.943 63.727 33.909 63.895 33.85 C 64.049 33.796 64.179 33.69 64.265 33.55 C 64.35 33.387 64.391 33.204 64.385 33.02 L 64.385 24.45 C 64.387 24.28 64.349 24.113 64.275 23.96 C 64.193 23.802 64.059 23.678 63.895 23.61 C 63.718 23.53 63.533 23.466 63.345 23.42 C 63.164 23.371 62.98 23.338 62.795 23.32 L 62.795 22.73 L 67.705 22.73 L 67.705 23.32 C 67.513 23.332 67.322 23.358 67.135 23.4 C 66.966 23.43 66.799 23.47 66.635 23.52 C 66.466 23.569 66.327 23.69 66.255 23.85 C 66.188 24.012 66.154 24.185 66.155 24.36 L 66.155 28 L 71.715 28 L 71.715 24.45 C 71.717 24.28 71.679 24.113 71.605 23.96 C 71.523 23.802 71.389 23.678 71.225 23.61 C 71.048 23.53 70.863 23.466 70.675 23.42 C 70.494 23.371 70.31 23.338 70.125 23.32 L 70.125 22.73 L 75.035 22.73 L 75.035 23.32 C 74.843 23.332 74.652 23.358 74.465 23.4 C 74.296 23.43 74.129 23.47 73.965 23.52 C 73.796 23.569 73.657 23.69 73.585 23.85 C 73.518 24.012 73.484 24.185 73.485 24.36 L 73.485 32.89 C 73.481 33.059 73.515 33.226 73.585 33.38 C 73.67 33.535 73.804 33.657 73.965 33.73 C 74.124 33.801 74.292 33.851 74.465 33.88 C 74.652 33.921 74.843 33.948 75.035 33.96 Z" style="fill:#e71b28"/>
      <path d="M 87.745 34.56 L 82.825 34.56 L 82.825 34 C 83.208 33.976 83.587 33.909 83.955 33.8 C 84.241 33.713 84.385 33.61 84.385 33.49 C 84.389 33.43 84.389 33.37 84.385 33.31 C 84.375 33.245 84.358 33.181 84.335 33.12 L 83.335 30.47 L 79.135 30.47 C 78.981 30.857 78.855 31.19 78.755 31.47 L 78.495 32.27 C 78.434 32.461 78.384 32.654 78.345 32.85 C 78.334 32.973 78.334 33.097 78.345 33.22 C 78.345 33.44 78.521 33.613 78.875 33.74 C 79.255 33.87 79.653 33.944 80.055 33.96 L 80.055 34.55 L 75.555 34.55 L 75.555 34 C 75.737 33.981 75.918 33.948 76.095 33.9 C 76.282 33.86 76.461 33.789 76.625 33.69 C 76.823 33.564 76.999 33.405 77.145 33.22 C 77.292 33.009 77.413 32.781 77.505 32.54 C 78.098 31.053 78.765 29.387 79.505 27.54 L 81.425 22.59 L 82.095 22.59 L 85.955 32.77 C 86.022 32.956 86.116 33.131 86.235 33.29 C 86.361 33.441 86.51 33.572 86.675 33.68 C 86.831 33.771 86.999 33.838 87.175 33.88 C 87.344 33.928 87.519 33.958 87.695 33.97 Z M 82.955 29.72 L 81.165 25.13 L 79.395 29.72 Z" style="fill:#e71b28"/>
      <path d="M 96.245 25.94 L 95.665 25.94 C 95.598 25.695 95.507 25.457 95.395 25.23 C 95.266 24.96 95.119 24.699 94.955 24.45 C 94.797 24.207 94.612 23.982 94.405 23.78 C 94.253 23.614 94.054 23.499 93.835 23.45 L 93.185 23.4 L 92.455 23.4 L 91.955 23.4 L 91.955 32.87 C 91.954 33.044 91.995 33.215 92.075 33.37 C 92.165 33.532 92.311 33.656 92.485 33.72 C 92.691 33.787 92.901 33.841 93.115 33.88 C 93.361 33.937 93.612 33.974 93.865 33.99 L 93.865 34.58 L 88.285 34.58 L 88.285 34 L 88.955 33.9 C 89.179 33.886 89.4 33.846 89.615 33.78 C 89.777 33.721 89.917 33.613 90.015 33.47 C 90.11 33.303 90.155 33.112 90.145 32.92 L 90.145 23.38 L 89.065 23.38 C 88.805 23.38 88.565 23.38 88.335 23.43 C 88.113 23.472 87.912 23.589 87.765 23.76 C 87.56 23.965 87.375 24.189 87.215 24.43 C 87.047 24.684 86.9 24.952 86.775 25.23 C 86.666 25.456 86.576 25.69 86.505 25.93 L 85.955 25.93 L 85.955 22.73 L 96.245 22.73 Z" style="fill:#e71b28"/>
      <path d="M 107.585 25.94 L 107.005 25.94 C 106.938 25.695 106.847 25.457 106.735 25.23 C 106.606 24.96 106.459 24.699 106.295 24.45 C 106.137 24.207 105.952 23.982 105.745 23.78 C 105.593 23.614 105.394 23.499 105.175 23.45 L 104.525 23.4 L 103.795 23.4 L 103.315 23.4 L 103.315 32.87 C 103.314 33.044 103.355 33.215 103.435 33.37 C 103.525 33.532 103.671 33.656 103.845 33.72 C 104.051 33.787 104.261 33.841 104.475 33.88 C 104.721 33.937 104.972 33.974 105.225 33.99 L 105.225 34.58 L 99.625 34.58 L 99.625 34 L 100.335 33.93 C 100.559 33.916 100.78 33.876 100.995 33.81 C 101.157 33.751 101.297 33.643 101.395 33.5 C 101.49 33.333 101.535 33.142 101.525 32.95 L 101.525 23.38 L 100.415 23.38 C 100.155 23.38 99.915 23.38 99.685 23.43 C 99.463 23.472 99.262 23.589 99.115 23.76 C 98.91 23.965 98.725 24.189 98.565 24.43 C 98.397 24.684 98.25 24.952 98.125 25.23 C 98.016 25.456 97.926 25.69 97.855 25.93 L 97.275 25.93 L 97.275 22.73 L 107.585 22.73 Z" style="fill:#e71b28"/>
      <path d="M 118.475 31.08 L 118.245 34.56 L 108.425 34.56 L 108.425 34 L 109.095 33.93 C 109.278 33.915 109.46 33.878 109.635 33.82 C 109.791 33.754 109.922 33.638 110.005 33.49 C 110.079 33.331 110.113 33.156 110.105 32.98 L 110.105 24.45 C 110.109 24.282 110.079 24.115 110.015 23.96 C 109.936 23.8 109.801 23.675 109.635 23.61 C 109.442 23.525 109.241 23.462 109.035 23.42 C 108.837 23.374 108.636 23.341 108.435 23.32 L 108.435 22.73 L 117.595 22.73 L 117.595 25.58 L 116.955 25.58 C 116.807 25.086 116.562 24.627 116.235 24.23 C 115.992 23.846 115.614 23.567 115.175 23.45 L 114.555 23.45 L 113.735 23.45 L 111.885 23.45 L 111.885 28.15 L 113.215 28.15 C 113.534 28.158 113.853 28.107 114.155 28 C 114.36 27.915 114.539 27.777 114.675 27.6 C 114.814 27.402 114.919 27.183 114.985 26.95 C 115.065 26.703 115.122 26.448 115.155 26.19 L 115.785 26.19 L 115.785 30.83 L 115.155 30.83 C 115.128 30.541 115.068 30.255 114.975 29.98 C 114.911 29.748 114.81 29.529 114.675 29.33 C 114.526 29.133 114.32 28.986 114.085 28.91 C 113.801 28.835 113.508 28.802 113.215 28.81 L 111.885 28.81 L 111.885 32.35 C 111.879 32.632 111.906 32.914 111.965 33.19 C 112.002 33.376 112.105 33.543 112.255 33.66 C 112.432 33.774 112.634 33.843 112.845 33.86 C 113.201 33.88 113.558 33.88 113.915 33.86 L 114.645 33.86 C 114.898 33.873 115.151 33.873 115.405 33.86 C 115.624 33.835 115.841 33.795 116.055 33.74 C 116.233 33.705 116.399 33.622 116.535 33.5 C 116.859 33.136 117.131 32.728 117.345 32.29 C 117.556 31.908 117.737 31.51 117.885 31.1 Z" style="fill:#e71b28"/>
      <path d="M 131.205 34.56 L 128.025 34.56 C 127.311 33.453 126.671 32.497 126.105 31.69 C 125.538 30.883 124.921 30.053 124.255 29.2 L 123.045 29.2 L 123.045 33 C 123.041 33.174 123.071 33.348 123.135 33.51 C 123.212 33.672 123.353 33.796 123.525 33.85 C 123.697 33.906 123.875 33.942 124.055 33.96 C 124.305 33.96 124.515 34.01 124.685 34.02 L 124.685 34.61 L 119.685 34.61 L 119.685 34 L 120.265 33.94 C 120.445 33.928 120.624 33.891 120.795 33.83 C 120.947 33.767 121.074 33.654 121.155 33.51 C 121.234 33.345 121.272 33.163 121.265 32.98 L 121.265 24.4 C 121.269 24.223 121.242 24.047 121.185 23.88 C 121.111 23.714 120.969 23.59 120.795 23.54 C 120.619 23.479 120.438 23.432 120.255 23.4 L 119.685 23.32 L 119.685 22.73 L 125.145 22.73 C 125.619 22.725 126.092 22.776 126.555 22.88 C 126.977 22.977 127.38 23.146 127.745 23.38 C 128.088 23.598 128.373 23.897 128.575 24.25 C 128.791 24.648 128.898 25.097 128.885 25.55 C 128.892 25.963 128.821 26.374 128.675 26.76 C 128.539 27.106 128.327 27.417 128.055 27.67 C 127.787 27.92 127.484 28.129 127.155 28.29 C 126.783 28.476 126.394 28.626 125.995 28.74 C 126.581 29.513 127.065 30.18 127.445 30.74 L 128.865 32.67 C 129.053 32.943 129.274 33.192 129.525 33.41 C 129.708 33.559 129.906 33.69 130.115 33.8 C 130.286 33.882 130.467 33.939 130.655 33.97 C 130.833 34.005 131.013 34.029 131.195 34.04 Z M 126.815 25.74 C 126.927 24.397 125.796 23.281 124.455 23.41 L 123.045 23.41 L 123.045 28.48 L 124.135 28.48 C 125.668 28.548 126.921 27.272 126.825 25.74 Z" style="fill:#e71b28"/>
    </g>
  </g>
</svg>